<?xml version="1.0" encoding="UTF-8" standalone="no"?>
<svg width="108.54547" height="100" viewBox="0 0 108.54547 100" version="1.1" id="svg5" xml:space="preserve"
	xmlns="http://www.w3.org/2000/svg" xmlns:svg="http://www.w3.org/2000/svg">
	<defs id="defs2">
		<style id="style261">
			.cls-1 {
				fill: none;
			}

			.cls-2 {
				clip-path: url(#clippath);
			}

			.cls-3 {
				fill: #e30a28;
			}

			.cls-4 {
				clip-path: url(#clippath-1);
			}

			.cls-5 {
				clip-path: url(#clippath-3);
			}

			.cls-6 {
				clip-path: url(#clippath-2);
			}
		</style>
		<style id="style106">
			.cls-1 {
				fill: none;
			}

			.cls-2 {
				fill: #50bf61;
			}
		</style>
		<style id="style125">
			.cls-1 {
				fill: none;
			}

			.cls-2 {
				fill: #50bf61;
			}
		</style>
	</defs>
	<g id="layer1" transform="translate(-895.10052,-274.28915)">
		<g id="g2216" transform="matrix(2.1323592,0,0,2.1323592,433.09972,-224.96374)">
			<g transform="translate(982.96875,254.53247)" id="Fill-1-0">
				<path
					style="opacity:1;fill:#d10c14;fill-rule:nonzero;stroke:#000000;stroke-width:0;stroke-linecap:butt;stroke-linejoin:miter;stroke-miterlimit:4;stroke-dasharray:none;stroke-dashoffset:0"
					vector-effect="non-scaling-stroke"
					d="m -766.30694,26.495654 h 50.90393 v -46.896412 h -50.90393 z m 46.42437,-4.689848 h -41.94481 v -37.517092 h 4.0721 V 7.2042223 h 9.54383 c 0.99342,6.1701597 6.11784,10.8714757 12.29423,10.8714757 6.88769,0 12.47111,-5.845672 12.47111,-13.0565997 0,-7.210928 -5.58342,-13.056224 -12.47111,-13.056224 -5.85225,0 -10.76064,4.220412 -12.10514,9.911924 h -4.64262 V -15.711286 h 32.78241 z M -743.32371,1.8747983 c 1.18754,-3.062144 4.05503,-5.222452 7.40613,-5.222452 4.41401,0 7.99191,3.74608801 7.99191,8.366752 0,4.62104 -3.5779,8.3667517 -7.99191,8.3667517 -3.6914,0 -6.79665,-2.62072 -7.71465,-6.1816277 h 6.74762 v -5.329424 z"
					stroke-linecap="round" id="path2204" />
			</g>
		</g>
	</g>
</svg>
