<?xml version="1.0" encoding="UTF-8" standalone="no"?>
<svg width="133.21532" height="100" viewBox="0 0 133.21532 100" version="1.1" id="svg5" xml:space="preserve"
	xmlns="http://www.w3.org/2000/svg" xmlns:svg="http://www.w3.org/2000/svg">
	<defs id="defs2">
		<style id="style261">
			.cls-1 {
				fill: none;
			}

			.cls-2 {
				clip-path: url(#clippath);
			}

			.cls-3 {
				fill: #e30a28;
			}

			.cls-4 {
				clip-path: url(#clippath-1);
			}

			.cls-5 {
				clip-path: url(#clippath-3);
			}

			.cls-6 {
				clip-path: url(#clippath-2);
			}
		</style>
		<clipPath id="clippath">
			<rect class="cls-1" width="7347.4399" height="1408.2" id="rect263" x="0" y="0" />
		</clipPath>
		<style id="style106">
			.cls-1 {
				fill: none;
			}

			.cls-2 {
				fill: #50bf61;
			}
		</style>
		<style id="style125">
			.cls-1 {
				fill: none;
			}

			.cls-2 {
				fill: #50bf61;
			}
		</style>
		<style id="style261-5">
			.cls-1 {
				fill: none;
			}

			.cls-2 {
				clip-path: url(#clippath);
			}

			.cls-3 {
				fill: #e30a28;
			}

			.cls-4 {
				clip-path: url(#clippath-1);
			}

			.cls-5 {
				clip-path: url(#clippath-3);
			}

			.cls-6 {
				clip-path: url(#clippath-2);
			}
		</style>
		<style id="style106-9">
			.cls-1 {
				fill: none;
			}

			.cls-2 {
				fill: #50bf61;
			}
		</style>
		<style id="style125-1">
			.cls-1 {
				fill: none;
			}

			.cls-2 {
				fill: #50bf61;
			}
		</style>
		<style id="style1580">
			.cls-1 {
				fill: none;
			}

			.cls-2 {
				fill: #50bf61;
			}
		</style>
	</defs>
	<g id="layer1">
		<g id="g2324" transform="translate(-883.39234,-490.48636)">
			<g id="layer1-7" transform="matrix(0.80000001,0,0,0.80000001,227.44096,165.10107)">
				<g id="layer1-5" transform="matrix(1.0752688,0,0,1.0752688,853.19879,406.73161)">
					<g id="g1142">
						<circle style="fill:#50bf61;fill-opacity:1;stroke-width:0.764595" id="path1130" cx="46.5"
							cy="46.5" r="46.5" />
						<g id="g1136" transform="translate(-891.22193,-492.14591)">
							<path class="cls-2"
								d="m 965.25074,518.57092 q -5.76,-4.29 -11.38,-4.28 c -3.41,0 -5.59,0.67 -6.51,2 q -2.1,3 -6.36,23.79 c -2.8,13.87 -3.64,16.04 -2.8,17.6 a 23.63,23.63 0 0 0 4.67,5.32 h 2.81 c 1.09,-1.32 1.87,1 2.81,-4.09 0.83,-4.52 1.71,-6.79 2.71,-6.79 a 9.54,9.54 0 0 1 2.36,0.42 9.11,9.11 0 0 0 2.12,0.43 q 4.39,0 11.74,-2.72 c 2.92,-1.07 5.24,-4.07 6.91,-9 1.67,-4.93 1.59,-9.14 -0.25,-12.61 a 30.16,30.16 0 0 0 -8.83,-10.07 z m 0.89,13.26 a 14.59,14.59 0 0 1 -1,5.21 10.81,10.81 0 0 1 -3.15,3.71 c -1.65,1.49 -3.08,2.23 -4.31,2.23 h -5.26 l -1.44,-2.73 q -1.78,-3.33 -0.43,-9 a 19.38,19.38 0 0 1 3.18,-7.56 q 0.92,-1.24 4.83,-1.24 c 3.25,0 5.48,1.11 6.67,3.35 a 11.86,11.86 0 0 1 0.91,6.03 z"
								id="path112" style="fill:#ffffff;fill-opacity:1" clip-path="url(#clippath)" />
							<path class="cls-2"
								d="m 928.50897,516.01091 h -2.93 q 2,11.06 -5.53,27.24 a 28.64,28.64 0 0 1 -7.33,-9 c 0.31,0.59 -0.21,-0.39 -1.59,-3 q 0,0 -1.5,-2.82 a 18.24,18.24 0 0 0 -8.81,-8.29 l -0.9,2.05 6,11.18 c 1,1.89 4,6.2 9.09,13 a 84.83,84.83 0 0 1 5.22,10.28 10.05,10.05 0 0 0 3.13,2.76 13.6,13.6 0 0 0 3.91,1.87 l 4.89,-18 q 4.32,-17.61 1.86,-22.23 c -0.91,-1.65 -2.74,-3.32 -5.51,-5.04 z"
								id="path131" style="fill:#ffffff;fill-opacity:1" clip-path="url(#clippath)" />
						</g>
					</g>
				</g>
			</g>
			<g id="Layer_1-2" data-name="Layer 1" transform="matrix(0.23026504,0,0,0.23026504,883.39234,578.48636)">
				<path class="cls-1"
					d="m 346.36,9.3 q -3.92,0 -4.83,1.24 a 19.38,19.38 0 0 0 -3.18,7.56 q -1.35,5.7 0.43,9 l 1.44,2.73 h 5.26 c 1.23,0 2.66,-0.74 4.31,-2.23 a 10.81,10.81 0 0 0 3.15,-3.71 14.59,14.59 0 0 0 1,-5.21 11.86,11.86 0 0 0 -0.91,-6.06 C 351.84,10.41 349.61,9.3 346.36,9.3 Z"
					id="path1586" />
				<path class="cls-1"
					d="m 434.57,19.16 q -3,-3.46 -5.28,-3.46 -3.8,0 -6.43,4.69 a 18.23,18.23 0 0 0 -2.51,7.93 c -0.09,0.57 -0.41,1.81 -1,3.71 a 4.29,4.29 0 0 0 -0.07,3.09 8,8 0 0 0 2.5,2.84 23.09,23.09 0 0 0 11.36,-3.7 q 7.67,-4.71 4.23,-11.14 a 23.36,23.36 0 0 0 -2.8,-3.96 z"
					id="path1588" />
				<path class="cls-1"
					d="m 392.49,19.16 c -2,-2.31 -3.73,-3.46 -5.28,-3.46 -2.54,0 -4.67,1.56 -6.42,4.69 a 18.25,18.25 0 0 0 -2.52,7.93 c -0.09,0.57 -0.42,1.81 -0.95,3.71 a 4.28,4.28 0 0 0 -0.06,3.09 7.94,7.94 0 0 0 2.49,2.88 23.06,23.06 0 0 0 11.36,-3.7 q 7.65,-4.71 4.22,-11.14 a 22.68,22.68 0 0 0 -2.84,-4 z"
					id="path1590" />
				<path class="cls-1"
					d="m 203.84,16.72 c -4.24,-1.24 -7.12,-1.86 -8.67,-1.86 q -4.87,0 -5.79,3.09 c -0.14,0.5 -0.32,3.82 -0.52,10 q 5.89,-2.46 16.57,-8.27 z"
					id="path1592" />
				<path class="cls-1"
					d="M 241.39,28.7 A 112.79,112.79 0 0 0 254.24,27 q -3.78,-4.32 -11,-12.11 a 66,66 0 0 1 -1.85,13.81 z"
					id="path1594" />
				<path class="cls-2"
					d="m 28.59,4.21 h -2.93 q 2,11.06 -5.53,27.24 a 28.64,28.64 0 0 1 -7.33,-9 c 0.31,0.59 -0.21,-0.39 -1.59,-3 q 0,0 -1.5,-2.82 A 18.24,18.24 0 0 0 0.9,8.34 L 0,10.39 6,21.57 c 1,1.89 4,6.2 9.09,13 a 84.83,84.83 0 0 1 5.22,10.28 10.05,10.05 0 0 0 3.13,2.76 13.6,13.6 0 0 0 3.91,1.87 l 4.89,-18 Q 36.56,13.87 34.1,9.25 C 33.19,7.6 31.36,5.93 28.59,4.21 Z"
					id="path1596" clip-path="url(#clippath)" />
				<path class="cls-2"
					d="M 79.64,35.47 52,42 a 7.31,7.31 0 0 1 -2.65,-1.36 15,15 0 0 1 -0.17,-9 260,260 0 0 0 26.44,-7.15 c -2,-2.05 -3.41,-3.58 -4.27,-4.56 q -6.95,0.24 -15.29,0.61 a 16.45,16.45 0 0 1 -4.71,-0.36 q 0,-4.83 5.65,-6.57 a 80.2,80.2 0 0 1 11.47,-1.85 c 4.89,-0.59 8.05,-1.53 9.46,-2.85 L 76.46,6.18 A 10.2,10.2 0 0 0 69.34,3.33 44.27,44.27 0 0 0 60.6,4.58 43.35,43.35 0 0 1 51.87,5.83 3,3 0 0 1 50,5 3,3 0 0 0 48.16,4.2 c -0.57,0 -1.49,0.66 -2.73,2 A 11.29,11.29 0 0 1 43,8.41 c 0.5,1.41 0.93,2.52 1.29,3.34 a 29.12,29.12 0 0 0 -4.68,11.37 q -2,9.27 1.42,15.7 5.67,10.65 17.51,10.64 1.71,0 19.26,-5.08 c 2.82,-0.83 4.81,-1.89 6,-3.21 l -2.51,-4.71 z"
					id="path1598" clip-path="url(#clippath)" />
				<path class="cls-2"
					d="M 129,10 C 126,6.79 123.76,4.92 122.36,4.42 Q 100.1,4.8 95.52,4.92 78.07,6 80.31,10.2 a 10.86,10.86 0 0 0 3,3.2 6.54,6.54 0 0 0 3.69,1.73 c 2.26,-0.33 3.48,-0.49 3.65,-0.49 a 12.56,12.56 0 0 1 4.39,0.24 C 92,25.52 92,41.5 94.16,45.62 a 18.74,18.74 0 0 0 4.34,5.46 c 4.4,3.79 5.38,-3.95 3.86,-5.43 -0.27,-3.55 -0.22,-16.34 0.92,-21.2 q 2.13,-8.4 5.57,-10.63 a 64.75,64.75 0 0 1 10.62,-1.36 Q 127.41,12.22 129,10 Z"
					id="path1600" clip-path="url(#clippath)" />
				<path class="cls-2"
					d="M 168.22,35.47 140.57,42 a 7.31,7.31 0 0 1 -2.65,-1.36 14.88,14.88 0 0 1 -0.17,-9 260,260 0 0 0 26.44,-7.15 c -2,-2.05 -3.41,-3.58 -4.27,-4.56 q -6.94,0.24 -15.29,0.61 a 16.42,16.42 0 0 1 -4.71,-0.36 q 0,-4.83 5.65,-6.57 A 80.24,80.24 0 0 1 157,11.75 c 4.9,-0.59 8.05,-1.53 9.47,-2.85 L 165,6.18 A 10.2,10.2 0 0 0 157.88,3.33 44.27,44.27 0 0 0 149.14,4.58 43.45,43.45 0 0 1 140.41,5.83 3,3 0 0 1 138.62,5 3,3 0 0 0 136.78,4.2 c -0.57,0 -1.48,0.66 -2.73,2 a 11,11 0 0 1 -2.48,2.22 c 0.51,1.41 0.94,2.52 1.29,3.34 a 29.57,29.57 0 0 0 -4.67,11.37 q -2,9.27 1.42,15.7 5.67,10.65 17.51,10.64 1.71,0 19.26,-5.08 c 2.82,-0.83 4.81,-1.89 6,-3.21 l -2.5,-4.71 z"
					id="path1602" clip-path="url(#clippath)" />
				<path class="cls-2"
					d="m 222.35,42.23 a 137.94,137.94 0 0 1 -23.27,-3.59 5.45,5.45 0 0 1 -2.27,-1.74 c 0.19,-1.31 2.21,-2.72 6.06,-4.2 Q 210,30 211.79,28.36 c 2.59,-2.31 2.93,-5.28 1,-8.91 Q 210.21,14.62 202.29,10.54 195.13,6.94 190.11,7 A 5.4,5.4 0 0 0 188,7.3 9.62,9.62 0 0 0 183.56,5.83 q -2.82,0 -12.62,6.8 a 19.1,19.1 0 0 0 8,6.06 q -3.82,18.66 -2.84,20.51 a 26.23,26.23 0 0 0 5.05,6.06 h 3.66 c -0.08,-4.29 0.42,-7.25 1.49,-8.9 a 58.49,58.49 0 0 1 4.88,4.58 15.83,15.83 0 0 0 4.1,3.35 76.07,76.07 0 0 0 15.55,4.71 61.63,61.63 0 0 0 11.83,1.37 c 2.12,0 3.57,-0.33 4.36,-1 a 47.46,47.46 0 0 0 -3.06,-5 z M 188.86,28 c 0.2,-6.18 0.38,-9.5 0.52,-10 q 0.92,-3.09 5.79,-3.09 c 1.55,0 4.43,0.62 8.67,1.86 l 1.59,3 Q 194.74,25.49 188.86,28 Z"
					id="path1604" clip-path="url(#clippath)" />
				<path class="cls-2"
					d="M 257.74,22.5 Q 252.37,16.82 246.1,6.18 A 17.2,17.2 0 0 0 242.16,2.35 C 240.15,0.78 238.69,0 237.8,0 q -2.19,0 -4.54,13.22 -1.72,10.5 -2.56,15.78 c -1.73,8.66 -2.44,13.26 -2.13,13.84 0.31,0.58 1.55,1.51 3.87,3 a 43.21,43.21 0 0 0 4.6,2.78 c 0.34,-0.74 1.06,-2.8 2.2,-6.17 0.88,-2.63 1.57,-4.07 2.09,-4.31 3.51,-1.8 9.62,-2.72 18.33,-2.72 2.11,0 4.2,1.08 6.23,3.22 2.8,3.54 4.29,5.44 4.5,5.69 2.12,2.3 4,3.46 5.63,3.46 a 1.4,1.4 0 0 0 1.53,-1.36 4.37,4.37 0 0 0 -0.53,-2.72 q -0.74,-1.3 -19.28,-21.21 z m -16.35,6.2 a 66,66 0 0 0 1.87,-13.83 q 7.2,7.78 11,12.11 a 112.79,112.79 0 0 1 -12.87,1.72 z"
					id="path1606" clip-path="url(#clippath)" />
				<path class="cls-2"
					d="m 317.64,9.71 a 10.19,10.19 0 0 0 -3.29,-3.29 12.15,12.15 0 0 0 -4.21,-2 Q 309.3,24.53 308,32.43 298.84,29.24 295.55,23.04 c -0.36,-0.66 -0.8,-1.6 -1.34,-2.84 -0.54,-1.24 -1,-2.19 -1.33,-2.84 a 16.79,16.79 0 0 0 -8.17,-7.29 l -3.33,17.54 q -2.13,10.88 -1.47,12.12 a 14.94,14.94 0 0 0 3.63,3.82 15.21,15.21 0 0 0 4.46,2.85 c 1.24,-1.49 2.23,-4.28 3,-8.4 q 0.52,-4.95 1.14,-9.76 12.39,8.58 18.16,12.32 c 2.27,2.39 4,4.35 5.19,5.84 H 319 q 1.41,-2.86 1.12,-17.37 C 320,19 319.12,12.51 317.64,9.71 Z"
					id="path1608" clip-path="url(#clippath)" />
				<path class="cls-2"
					d="M 353.05,5.45 Q 347.29,1.16 341.67,1.17 c -3.41,0 -5.59,0.67 -6.51,2 q -2.1,3 -6.36,23.79 C 326,40.83 325.16,43 326,44.56 a 23.63,23.63 0 0 0 4.67,5.32 h 2.81 c 1.09,-1.32 1.87,1 2.81,-4.09 C 337.12,41.27 338,39 339,39 a 9.54,9.54 0 0 1 2.36,0.42 9.11,9.11 0 0 0 2.12,0.43 q 4.39,0 11.74,-2.72 c 2.92,-1.07 5.24,-4.07 6.91,-9 1.67,-4.93 1.59,-9.14 -0.25,-12.61 A 30.16,30.16 0 0 0 353.05,5.45 Z m 0.89,13.26 a 14.59,14.59 0 0 1 -1,5.21 10.81,10.81 0 0 1 -3.15,3.71 c -1.65,1.49 -3.08,2.23 -4.31,2.23 h -5.26 l -1.44,-2.73 q -1.78,-3.33 -0.43,-9 a 19.38,19.38 0 0 1 3.18,-7.56 q 0.92,-1.24 4.83,-1.24 c 3.25,0 5.48,1.11 6.67,3.35 a 11.86,11.86 0 0 1 0.91,6.03 z"
					id="path1610" clip-path="url(#clippath)" />
				<path class="cls-2"
					d="M 392.85,13.24 Q 385.59,7.43 378.38,7.43 c -3.09,0 -4.84,0.46 -5.27,1.36 -1.89,4.2 -3.32,7.33 -4.25,9.39 a 25.35,25.35 0 0 0 -2.3,10.13 c 0,1.39 0.85,3.66 2.52,6.79 q 5.49,10.26 16.83,10.26 a 23,23 0 0 0 12.31,-3.71 q 10.15,-6.18 5.07,-15.69 A 40.7,40.7 0 0 0 392.85,13.24 Z m -1.74,21 a 23.06,23.06 0 0 1 -11.36,3.76 7.94,7.94 0 0 1 -2.49,-2.84 4.28,4.28 0 0 1 0.06,-3.09 c 0.53,-1.9 0.86,-3.14 0.95,-3.71 a 18.25,18.25 0 0 1 2.52,-7.93 c 1.75,-3.13 3.88,-4.69 6.42,-4.69 1.55,0 3.3,1.15 5.28,3.46 a 22.68,22.68 0 0 1 2.84,4 q 3.44,6.36 -4.22,11.06 z"
					id="path1612" clip-path="url(#clippath)" />
				<path class="cls-2"
					d="M 434.92,13.24 Q 427.67,7.43 420.47,7.43 c -3.09,0 -4.85,0.46 -5.26,1.36 -1.91,4.2 -3.35,7.33 -4.28,9.39 a 25.16,25.16 0 0 0 -2.29,10.13 c 0,1.39 0.86,3.66 2.53,6.79 q 5.46,10.26 16.83,10.26 a 23,23 0 0 0 12.31,-3.71 q 10.14,-6.18 5.07,-15.69 A 40.76,40.76 0 0 0 434.92,13.24 Z m -1.73,21 A 23.09,23.09 0 0 1 421.83,38 8,8 0 0 1 419.33,35.16 4.29,4.29 0 0 1 419.4,32 c 0.54,-1.9 0.86,-3.14 1,-3.71 a 18.23,18.23 0 0 1 2.51,-7.93 q 2.64,-4.69 6.43,-4.69 2.32,0 5.28,3.46 a 23.36,23.36 0 0 1 2.85,4 q 3.37,6.43 -4.28,11.13 z"
					id="path1614" clip-path="url(#clippath)" />
				<path class="cls-2"
					d="m 487.65,41.66 a 11.15,11.15 0 0 0 -2.8,-3.08 11.08,11.08 0 0 0 -3.69,-2.22 q -6.35,3.21 -16.6,3.21 a 13.2,13.2 0 0 1 -4.42,-0.5 c -0.27,-3 -0.13,-8.48 0.44,-16.55 q 0.76,-10.26 0.17,-11.37 a 9.23,9.23 0 0 0 -7.48,-5.32 q -1.84,10.5 -2.67,15.81 -1.94,12.6 0.23,16.68 5.54,10.38 16.17,10.37 c 0.49,0 3.54,-0.51 9.13,-1.54 5.59,-1.03 9.76,-1.67 12.48,-1.91 a 7.46,7.46 0 0 1 -0.24,-1.36 6.35,6.35 0 0 0 -0.72,-2.22 z"
					id="path1616" clip-path="url(#clippath)" />
				<path class="cls-2"
					d="M 530,35.47 502.35,42 a 7.32,7.32 0 0 1 -2.66,-1.36 15,15 0 0 1 -0.16,-9 260.29,260.29 0 0 0 26.47,-7.16 c -2,-2.05 -3.42,-3.58 -4.28,-4.56 q -6.94,0.24 -15.28,0.61 a 16.52,16.52 0 0 1 -4.72,-0.36 q 0,-4.83 5.66,-6.57 a 79.71,79.71 0 0 1 11.46,-1.85 c 4.89,-0.59 8,-1.53 9.46,-2.85 L 526.85,6.18 A 10.27,10.27 0 0 0 519.71,3.33 44.29,44.29 0 0 0 511,4.58 43.35,43.35 0 0 1 502.27,5.83 3,3 0 0 1 500.4,5 3,3 0 0 0 498.56,4.2 c -0.56,0 -1.48,0.66 -2.73,2 a 10.79,10.79 0 0 1 -2.48,2.22 c 0.51,1.41 0.94,2.52 1.31,3.34 A 29.27,29.27 0 0 0 490,23.12 q -2,9.27 1.41,15.7 5.69,10.65 17.52,10.64 1.71,0 19.26,-5.08 c 2.82,-0.83 4.81,-1.89 6,-3.21 l -2.51,-4.71 z"
					id="path1618" clip-path="url(#clippath)" />
				<path class="cls-2"
					d="m 578.48,26.4 c -0.17,-10.07 -1,-16.53 -2.51,-19.33 a 10,10 0 0 0 -3.28,-3.29 12,12 0 0 0 -4.2,-2 q -0.86,20.16 -2.11,28.07 -9.17,-3.19 -12.46,-9.39 c -0.36,-0.66 -0.79,-1.6 -1.34,-2.85 -0.55,-1.25 -1,-2.18 -1.32,-2.83 a 16.8,16.8 0 0 0 -8.17,-7.3 L 539.76,25 q -2.14,10.88 -1.48,12.12 a 15.31,15.31 0 0 0 3.63,3.83 14.93,14.93 0 0 0 4.45,2.84 c 1.24,-1.49 2.23,-4.28 3,-8.4 q 0.52,-4.93 1.13,-9.76 12.4,8.59 18.17,12.32 3.39,3.6 5.18,5.84 h 3.55 q 1.38,-2.89 1.09,-17.39 z"
					id="path1620" clip-path="url(#clippath)" />
			</g>
		</g>
	</g>
</svg>
