<?xml version="1.0" encoding="UTF-8" standalone="no"?>
<svg width="100" height="100" viewBox="0 0 500 500" version="1.1" id="svg5"
	xmlns:inkscape="http://www.inkscape.org/namespaces/inkscape"
	xmlns:sodipodi="http://sodipodi.sourceforge.net/DTD/sodipodi-0.dtd" xmlns="http://www.w3.org/2000/svg"
	xmlns:svg="http://www.w3.org/2000/svg">
	<sodipodi:namedview id="namedview7" pagecolor="#ffffff" bordercolor="#000000" borderopacity="1"
		inkscape:showpageshadow="2" inkscape:pageopacity="0.0" inkscape:pagecheckerboard="0"
		inkscape:deskcolor="#d1d1d1" inkscape:document-units="px" showgrid="false" />
	<defs id="defs2" />
	<g inkscape:label="Layer 1" inkscape:groupmode="layer" id="layer1">
		<g id="g7791">
			<path id="path113" style="fill:#ffd700;fill-opacity:1;stroke-width:0.876463"
				d="M 0,250 A 250.00032,250.00032 0 0 0 250,500 250.00032,250.00032 0 0 0 500,250 H 473.58984 A 223.59017,223.59017 0 0 1 250,473.58984 223.59017,223.59017 0 0 1 26.410156,250 Z" />
			<path id="path113-6" style="fill:#0057b7;fill-opacity:1;stroke-width:0.876463"
				d="M 250.00001,0 A 250.00032,250.00032 0 0 0 0,250 H 26.41015 A 223.59017,223.59017 0 0 1 250.00001,26.41015 223.59017,223.59017 0 0 1 473.58981,250 h 26.4102 a 250.00032,250.00032 0 0 0 -250,-250 z" />
		</g>
	</g>
</svg>
