<?xml version="1.0" encoding="UTF-8"?>
<!DOCTYPE svg PUBLIC "-//W3C//DTD SVG 1.1//EN" "http://www.w3.org/Graphics/SVG/1.1/DTD/svg11.dtd">
<svg version="1.2" width="189.68mm" height="63.4mm" viewBox="1053 5080 18968 6340" preserveAspectRatio="xMidYMid" fill-rule="evenodd" stroke-width="28.222" stroke-linejoin="round" xmlns="http://www.w3.org/2000/svg" xmlns:ooo="http://xml.openoffice.org/svg/export" xmlns:xlink="http://www.w3.org/1999/xlink" xmlns:presentation="http://sun.com/xmlns/staroffice/presentation" xmlns:smil="http://www.w3.org/2001/SMIL20/" xmlns:anim="urn:oasis:names:tc:opendocument:xmlns:animation:1.0" xmlns:svg="urn:oasis:names:tc:opendocument:xmlns:svg-compatible:1.0" xml:space="preserve">
 <defs class="EmbeddedBulletChars">
  <g id="bullet-char-template-57356" transform="scale(0.00048828125,-0.00048828125)">
   <path d="M 580,1141 L 1163,571 580,0 -4,571 580,1141 Z"/>
  </g>
  <g id="bullet-char-template-57354" transform="scale(0.00048828125,-0.00048828125)">
   <path d="M 8,1128 L 1137,1128 1137,0 8,0 8,1128 Z"/>
  </g>
  <g id="bullet-char-template-10146" transform="scale(0.00048828125,-0.00048828125)">
   <path d="M 174,0 L 602,739 174,1481 1456,739 174,0 Z M 1358,739 L 309,1346 659,739 1358,739 Z"/>
  </g>
  <g id="bullet-char-template-10132" transform="scale(0.00048828125,-0.00048828125)">
   <path d="M 2015,739 L 1276,0 717,0 1260,543 174,543 174,936 1260,936 717,1481 1274,1481 2015,739 Z"/>
  </g>
  <g id="bullet-char-template-10007" transform="scale(0.00048828125,-0.00048828125)">
   <path d="M 0,-2 C -7,14 -16,27 -25,37 L 356,567 C 262,823 215,952 215,954 215,979 228,992 255,992 264,992 276,990 289,987 310,991 331,999 354,1012 L 381,999 492,748 772,1049 836,1024 860,1049 C 881,1039 901,1025 922,1006 886,937 835,863 770,784 769,783 710,716 594,584 L 774,223 C 774,196 753,168 711,139 L 727,119 C 717,90 699,76 672,76 641,76 570,178 457,381 L 164,-76 C 142,-110 111,-127 72,-127 30,-127 9,-110 8,-76 1,-67 -2,-52 -2,-32 -2,-23 -1,-13 0,-2 Z"/>
  </g>
  <g id="bullet-char-template-10004" transform="scale(0.00048828125,-0.00048828125)">
   <path d="M 285,-33 C 182,-33 111,30 74,156 52,228 41,333 41,471 41,549 55,616 82,672 116,743 169,778 240,778 293,778 328,747 346,684 L 369,508 C 377,444 397,411 428,410 L 1163,1116 C 1174,1127 1196,1133 1229,1133 1271,1133 1292,1118 1292,1087 L 1292,965 C 1292,929 1282,901 1262,881 L 442,47 C 390,-6 338,-33 285,-33 Z"/>
  </g>
  <g id="bullet-char-template-9679" transform="scale(0.00048828125,-0.00048828125)">
   <path d="M 813,0 C 632,0 489,54 383,161 276,268 223,411 223,592 223,773 276,916 383,1023 489,1130 632,1184 813,1184 992,1184 1136,1130 1245,1023 1353,916 1407,772 1407,592 1407,412 1353,268 1245,161 1136,54 992,0 813,0 Z"/>
  </g>
  <g id="bullet-char-template-8226" transform="scale(0.00048828125,-0.00048828125)">
   <path d="M 346,457 C 273,457 209,483 155,535 101,586 74,649 74,723 74,796 101,859 155,911 209,963 273,989 346,989 419,989 480,963 531,910 582,859 608,796 608,723 608,648 583,586 532,535 482,483 420,457 346,457 Z"/>
  </g>
  <g id="bullet-char-template-8211" transform="scale(0.00048828125,-0.00048828125)">
   <path d="M -4,459 L 1135,459 1135,606 -4,606 -4,459 Z"/>
  </g>
  <g id="bullet-char-template-61548" transform="scale(0.00048828125,-0.00048828125)">
   <path d="M 173,740 C 173,903 231,1043 346,1159 462,1274 601,1332 765,1332 928,1332 1067,1274 1183,1159 1299,1043 1357,903 1357,740 1357,577 1299,437 1183,322 1067,206 928,148 765,148 601,148 462,206 346,322 231,437 173,577 173,740 Z"/>
  </g>
 </defs>
 <g class="Page">
  <g class="com.sun.star.drawing.ClosedBezierShape">
   <g id="id3">
    <rect class="BoundingBox" stroke="none" fill="none" x="1053" y="8251" width="4244" height="2095"/>
    <path fill="rgb(245,212,27)" stroke="none" d="M 1053,8255 C 1055,9404 2005,10345 3176,10345 4347,10345 5295,9402 5296,8252 L 4407,8252 C 4406,9166 3665,9919 2750,9919 1835,9919 1091,9169 1091,8255 L 1053,8255 Z"/>
   </g>
  </g>
  <g class="com.sun.star.drawing.ClosedBezierShape">
   <g id="id4">
    <rect class="BoundingBox" stroke="none" fill="none" x="1053" y="6171" width="4244" height="2086"/>
    <path fill="rgb(0,111,199)" stroke="none" d="M 1053,8256 C 1055,7106 2004,6171 3175,6171 4346,6171 5295,7102 5296,8253 L 4407,8253 C 4406,7339 3664,6597 2749,6597 1834,6597 1091,7342 1091,8256 L 1053,8256 Z"/>
   </g>
  </g>
  <g class="com.sun.star.drawing.ClosedBezierShape">
   <g id="id5">
    <rect class="BoundingBox" stroke="none" fill="none" x="1160" y="9383" width="5829" height="2037"/>
    <path fill="rgb(245,212,27)" stroke="none" d="M 1160,9455 C 1665,11022 4003,12187 5962,10802 6340,10536 6951,9870 6988,9387 5041,9308 5972,10407 4054,10803 2231,11181 1428,9664 1160,9455 Z"/>
   </g>
  </g>
  <g class="com.sun.star.drawing.ClosedBezierShape">
   <g id="id6">
    <rect class="BoundingBox" stroke="none" fill="none" x="1388" y="5080" width="5626" height="2050"/>
    <path fill="rgb(0,111,199)" stroke="none" d="M 1388,6725 C 1970,6148 2920,5324 4304,5758 4881,5938 5244,6218 5542,6565 6003,7100 6071,7161 7012,7117 7009,6640 6338,5972 6059,5756 4360,4438 2051,5202 1388,6725 Z"/>
   </g>
  </g>
  <g class="com.sun.star.drawing.ClosedBezierShape">
   <g id="id7">
    <rect class="BoundingBox" stroke="none" fill="none" x="7469" y="8431" width="9849" height="2524"/>
    <path fill="rgb(245,212,27)" stroke="none" d="M 17314,9811 C 17320,9724 17316,9640 17301,9558 17286,9477 17260,9400 17224,9330 17189,9260 17143,9198 17087,9146 17031,9093 16965,9051 16889,9021 16813,8991 16727,8976 16631,8976 16524,8976 16427,8995 16339,9033 16251,9070 16175,9122 16112,9189 16048,9256 15999,9335 15965,9425 15931,9515 15913,9613 15913,9719 15913,9828 15930,9928 15963,10018 15996,10108 16043,10186 16106,10252 16168,10318 16243,10369 16332,10404 16420,10440 16520,10458 16631,10459 16737,10459 16833,10443 16919,10410 17005,10378 17079,10327 17141,10257 17203,10187 17253,10097 17290,9985 L 16950,9985 C 16941,10015 16922,10044 16894,10072 16866,10099 16830,10122 16787,10140 16745,10158 16697,10167 16645,10168 16536,10168 16453,10140 16394,10082 16336,10025 16305,9935 16299,9811 L 17314,9811 Z M 9262,9131 C 9248,9019 9218,8919 9169,8832 9120,8745 9058,8672 8983,8612 8907,8552 8822,8507 8727,8477 8632,8446 8530,8431 8424,8431 8304,8431 8194,8448 8095,8482 7995,8516 7906,8564 7829,8626 7752,8687 7686,8761 7633,8847 7579,8932 7539,9026 7511,9129 7483,9232 7469,9342 7469,9458 7469,9570 7483,9677 7511,9778 7539,9879 7579,9971 7633,10055 7686,10139 7752,10212 7829,10273 7906,10335 7995,10382 8095,10416 8194,10449 8304,10467 8424,10467 8544,10467 8654,10448 8753,10411 8853,10375 8940,10321 9014,10253 9089,10183 9149,10100 9194,10002 9239,9905 9267,9795 9278,9673 L 8865,9673 C 8854,9759 8830,9835 8794,9900 8758,9965 8709,10016 8647,10053 8585,10089 8511,10107 8424,10108 8347,10107 8280,10095 8222,10071 8164,10048 8114,10014 8072,9972 8031,9930 7997,9882 7971,9826 7945,9771 7926,9712 7914,9649 7902,9587 7896,9523 7896,9458 7896,9389 7902,9322 7914,9258 7926,9193 7945,9132 7971,9076 7997,9019 8031,8970 8072,8927 8114,8885 8164,8852 8222,8828 8280,8803 8347,8790 8424,8790 8476,8790 8527,8799 8574,8816 8622,8834 8665,8858 8703,8888 8742,8919 8774,8955 8799,8996 8824,9038 8841,9083 8848,9131 L 9262,9131 Z M 9529,10421 L 9915,10421 9915,9683 C 9915,9589 9925,9512 9946,9452 9967,9393 9999,9349 10044,9322 10088,9294 10144,9280 10214,9281 10275,9281 10323,9293 10359,9319 10396,9344 10422,9383 10438,9434 10454,9485 10462,9549 10462,9626 L 10462,10421 10848,10421 10848,9556 C 10849,9468 10841,9389 10826,9318 10810,9247 10783,9186 10745,9135 10707,9084 10655,9045 10587,9018 10521,8990 10436,8976 10334,8976 10285,8976 10236,8984 10185,9001 10134,9018 10086,9044 10041,9078 9996,9112 9956,9156 9923,9210 L 9915,9210 9915,8477 9529,8477 9529,10421 Z M 11512,9447 C 11519,9371 11545,9317 11589,9283 11633,9250 11693,9234 11768,9234 11814,9234 11855,9238 11894,9248 11931,9257 11961,9275 11984,9303 12006,9331 12018,9371 12018,9425 12020,9464 12008,9494 11983,9516 11958,9537 11923,9553 11879,9564 11836,9575 11786,9583 11731,9589 11675,9595 11618,9602 11558,9609 11499,9618 11441,9629 11385,9646 11329,9662 11279,9685 11233,9716 11188,9747 11152,9788 11125,9840 11098,9892 11084,9958 11082,10037 11083,10109 11095,10172 11119,10225 11143,10277 11177,10321 11221,10356 11264,10391 11315,10417 11372,10433 11431,10450 11494,10459 11561,10459 11620,10459 11677,10453 11734,10442 11791,10431 11845,10412 11896,10387 11947,10361 11993,10327 12035,10285 12036,10308 12039,10331 12044,10354 12049,10377 12055,10399 12062,10421 L 12454,10421 C 12442,10401 12432,10375 12425,10343 12418,10310 12413,10273 12410,10233 12406,10193 12405,10151 12405,10108 L 12405,9376 C 12404,9309 12391,9252 12367,9205 12343,9158 12310,9119 12268,9089 12226,9059 12179,9036 12125,9020 12072,9003 12017,8991 11959,8985 11901,8979 11844,8976 11787,8976 11723,8976 11661,8980 11599,8990 11538,9000 11479,9016 11424,9038 11369,9060 11320,9089 11277,9126 11234,9162 11199,9207 11172,9260 11146,9313 11131,9375 11126,9447 L 11512,9447 Z M 12018,9877 C 12019,9895 12017,9917 12015,9944 12012,9970 12006,9999 11995,10028 11985,10058 11968,10086 11946,10111 11923,10137 11893,10159 11854,10175 11815,10191 11765,10200 11705,10200 11663,10201 11624,10196 11588,10185 11553,10175 11524,10156 11502,10130 11480,10104 11469,10068 11469,10021 11469,9974 11480,9937 11501,9909 11523,9882 11550,9860 11585,9846 11619,9831 11657,9821 11697,9814 11738,9807 11778,9801 11819,9796 11860,9790 11898,9783 11933,9774 11967,9765 11996,9751 12018,9732 L 12018,9877 Z M 12704,10421 L 13090,10421 13090,9683 C 13090,9589 13100,9512 13121,9452 13142,9393 13175,9349 13219,9322 13263,9294 13320,9280 13390,9281 13450,9281 13498,9293 13535,9319 13571,9344 13597,9383 13614,9434 13629,9485 13638,9549 13637,9626 L 13637,10421 14024,10421 14024,9556 C 14024,9468 14017,9389 14001,9318 13985,9247 13959,9186 13921,9135 13883,9084 13830,9045 13763,9018 13696,8990 13611,8976 13509,8976 13454,8976 13400,8984 13347,9001 13294,9018 13244,9044 13198,9078 13152,9112 13113,9156 13079,9210 L 13071,9210 13071,9014 12704,9014 12704,10421 Z M 15671,9014 L 15303,9014 15303,9202 15298,9202 C 15266,9147 15229,9104 15188,9071 15146,9038 15100,9013 15049,8998 14997,8983 14941,8976 14879,8976 14800,8976 14728,8989 14665,9014 14601,9038 14545,9072 14496,9116 14448,9160 14407,9211 14374,9270 14341,9328 14316,9392 14299,9460 14283,9528 14274,9599 14274,9673 14274,9770 14285,9861 14308,9946 14331,10031 14367,10106 14415,10171 14464,10236 14526,10287 14602,10324 14678,10360 14770,10379 14876,10380 14934,10380 14990,10372 15043,10357 15097,10341 15146,10317 15189,10285 15233,10253 15269,10212 15298,10162 L 15303,10162 15303,10347 C 15304,10416 15294,10476 15272,10528 15250,10580 15216,10621 15170,10651 15124,10680 15065,10695 14993,10696 14946,10696 14904,10690 14864,10677 14825,10665 14792,10645 14764,10617 14736,10588 14716,10550 14704,10502 L 14320,10502 C 14325,10566 14341,10623 14366,10672 14392,10721 14426,10763 14468,10799 14510,10834 14556,10864 14609,10887 14660,10910 14715,10927 14772,10938 14829,10949 14886,10954 14942,10954 15070,10953 15178,10939 15265,10911 15352,10884 15423,10847 15477,10801 15531,10755 15572,10705 15600,10650 15628,10595 15647,10540 15657,10485 15667,10429 15671,10378 15671,10331 L 15671,9014 Z M 14974,10089 C 14915,10088 14864,10076 14824,10051 14784,10027 14751,9994 14727,9954 14703,9913 14686,9868 14676,9818 14665,9768 14660,9718 14660,9667 14660,9614 14666,9564 14678,9516 14691,9468 14710,9426 14735,9389 14760,9351 14794,9322 14834,9300 14873,9278 14920,9268 14974,9267 15037,9268 15089,9279 15131,9302 15174,9326 15207,9357 15233,9398 15258,9438 15276,9484 15287,9536 15298,9587 15304,9642 15303,9700 15303,9751 15297,9799 15283,9845 15269,9892 15249,9933 15221,9970 15194,10006 15160,10035 15119,10056 15078,10077 15029,10088 14974,10089 Z M 16299,9566 C 16301,9538 16307,9507 16318,9474 16328,9440 16345,9407 16369,9376 16393,9345 16425,9319 16466,9298 16506,9278 16558,9268 16620,9267 16682,9267 16734,9278 16775,9301 16817,9324 16850,9357 16874,9402 16898,9446 16916,9501 16928,9566 L 16299,9566 Z"/>
   </g>
  </g>
  <g class="com.sun.star.drawing.ClosedBezierShape">
   <g id="id8">
    <rect class="BoundingBox" stroke="none" fill="none" x="7371" y="5701" width="12650" height="2579"/>
    <path fill="rgb(0,111,199)" stroke="none" d="M 18699,7691 L 19086,7691 19086,6954 C 19086,6859 19096,6782 19117,6723 19138,6663 19170,6620 19215,6592 19259,6564 19315,6551 19385,6551 19446,6551 19494,6564 19530,6589 19567,6615 19593,6653 19609,6705 19625,6756 19633,6820 19633,6897 L 19633,7691 20019,7691 20019,6826 C 20020,6739 20012,6660 19997,6588 19981,6518 19954,6456 19916,6405 19878,6354 19826,6314 19758,6287 19692,6260 19607,6246 19505,6245 19450,6245 19396,6254 19343,6270 19290,6287 19240,6313 19194,6348 19148,6382 19108,6426 19075,6480 L 19067,6480 19067,6284 18699,6284 18699,7691 Z M 7371,6728 C 7371,6841 7385,6948 7413,7048 7441,7149 7482,7241 7535,7325 7589,7410 7654,7482 7731,7543 7809,7605 7898,7653 7997,7686 8097,7720 8207,7737 8326,7738 8446,7737 8556,7720 8656,7686 8755,7653 8844,7605 8921,7543 8999,7482 9064,7410 9118,7325 9171,7241 9212,7149 9240,7048 9267,6948 9281,6841 9281,6728 9281,6612 9267,6503 9240,6399 9212,6296 9171,6202 9118,6117 9064,6032 8999,5958 8921,5896 8844,5834 8755,5787 8656,5753 8556,5719 8446,5702 8326,5701 8207,5702 8097,5719 7997,5753 7898,5787 7809,5834 7731,5896 7654,5958 7589,6032 7535,6117 7482,6202 7441,6296 7413,6399 7385,6503 7371,6612 7371,6728 Z M 7799,6728 C 7799,6660 7805,6593 7817,6528 7829,6463 7848,6401 7874,6345 7900,6289 7934,6240 7975,6197 8016,6154 8066,6121 8124,6097 8182,6073 8250,6061 8326,6060 8403,6061 8471,6073 8529,6097 8587,6121 8637,6154 8678,6197 8720,6240 8753,6289 8779,6345 8805,6401 8824,6463 8836,6528 8848,6593 8854,6660 8854,6728 8854,6793 8848,6857 8836,6920 8824,6983 8805,7042 8779,7097 8753,7152 8720,7201 8678,7243 8637,7285 8587,7318 8529,7342 8471,7366 8403,7378 8326,7378 8250,7378 8182,7366 8124,7342 8066,7318 8016,7285 7975,7243 7934,7201 7900,7152 7874,7097 7848,7042 7829,6983 7817,6920 7805,6857 7799,6793 7799,6728 Z M 9532,8279 L 9918,8279 9918,7517 9924,7517 C 9956,7563 9993,7602 10037,7634 10081,7665 10129,7689 10181,7705 10233,7721 10288,7729 10345,7729 10428,7729 10502,7716 10568,7690 10634,7664 10692,7628 10741,7582 10791,7536 10832,7482 10865,7421 10898,7360 10922,7294 10939,7223 10955,7152 10963,7079 10963,7003 10963,6923 10955,6845 10939,6771 10923,6696 10898,6627 10865,6564 10832,6500 10790,6445 10739,6397 10688,6349 10628,6312 10559,6286 10490,6259 10412,6246 10324,6245 10236,6245 10156,6262 10085,6297 10013,6332 9953,6387 9905,6464 L 9899,6464 9899,6284 9532,6284 9532,8279 Z M 10242,7438 C 10179,7438 10127,7425 10084,7401 10041,7376 10006,7343 9979,7301 9953,7259 9934,7211 9922,7158 9910,7105 9905,7050 9905,6992 9904,6934 9910,6879 9921,6825 9933,6771 9951,6722 9977,6679 10003,6636 10037,6602 10080,6577 10123,6551 10176,6538 10239,6538 10301,6538 10354,6551 10397,6577 10440,6602 10474,6637 10501,6680 10527,6724 10547,6772 10559,6826 10571,6880 10577,6935 10577,6992 10577,7050 10571,7105 10560,7158 10549,7211 10530,7259 10504,7301 10479,7343 10444,7376 10401,7401 10358,7425 10305,7438 10242,7438 Z M 12528,7082 C 12533,6995 12529,6910 12514,6829 12499,6747 12474,6671 12438,6601 12402,6530 12357,6469 12300,6415 12245,6362 12178,6321 12102,6291 12026,6261 11940,6246 11845,6245 11738,6246 11640,6265 11552,6302 11465,6339 11389,6392 11325,6460 11262,6527 11213,6605 11178,6695 11144,6785 11127,6883 11126,6989 11127,7099 11143,7198 11176,7289 11209,7379 11257,7457 11319,7523 11382,7588 11457,7639 11545,7675 11634,7711 11733,7729 11845,7729 11951,7730 12047,7714 12133,7681 12218,7648 12292,7597 12355,7528 12417,7458 12466,7367 12503,7256 L 12163,7256 C 12154,7285 12136,7314 12108,7342 12079,7370 12044,7392 12001,7410 11958,7428 11910,7438 11858,7438 11749,7439 11666,7411 11608,7353 11550,7295 11518,7205 11513,7082 L 12528,7082 Z M 11513,6837 C 11514,6809 11520,6778 11531,6744 11542,6710 11559,6678 11582,6646 11606,6615 11638,6589 11679,6569 11720,6549 11772,6538 11834,6538 11896,6538 11948,6549 11989,6572 12030,6594 12063,6628 12088,6672 12112,6717 12130,6772 12141,6837 L 11513,6837 Z M 12756,7691 L 13142,7691 13142,7057 C 13142,6994 13149,6936 13162,6881 13175,6826 13196,6779 13226,6738 13255,6696 13294,6664 13343,6641 13392,6618 13452,6606 13523,6606 13547,6606 13571,6607 13597,6609 13622,6612 13644,6615 13662,6619 L 13662,6259 C 13649,6255 13635,6252 13621,6249 13607,6247 13593,6245 13578,6245 13513,6246 13451,6259 13392,6284 13333,6309 13281,6344 13235,6388 13189,6433 13154,6486 13129,6546 L 13123,6546 13123,6284 12756,6284 12756,7691 Z M 14185,6717 C 14192,6641 14217,6587 14262,6554 14306,6520 14365,6504 14440,6505 14486,6504 14528,6509 14566,6518 14604,6527 14634,6546 14656,6573 14678,6601 14690,6641 14691,6695 14692,6734 14680,6764 14655,6786 14630,6807 14596,6824 14552,6834 14508,6845 14458,6853 14403,6859 14348,6865 14290,6872 14231,6880 14171,6888 14114,6900 14058,6916 14001,6932 13951,6956 13906,6987 13860,7017 13824,7059 13797,7111 13770,7163 13756,7228 13755,7308 13755,7380 13767,7442 13792,7495 13816,7548 13850,7592 13893,7626 13937,7661 13987,7687 14045,7704 14103,7721 14166,7729 14234,7729 14292,7729 14350,7724 14406,7713 14463,7701 14517,7683 14569,7657 14620,7631 14666,7598 14707,7555 14708,7578 14712,7601 14717,7624 14722,7647 14727,7670 14734,7691 L 15126,7691 C 15114,7672 15105,7646 15097,7613 15090,7581 15085,7544 15082,7504 15078,7463 15077,7421 15077,7378 L 15077,6646 C 15077,6579 15064,6522 15040,6475 15015,6427 14982,6389 14941,6359 14898,6329 14851,6306 14798,6289 14745,6273 14689,6261 14631,6255 14573,6248 14516,6245 14459,6245 14396,6245 14333,6250 14272,6260 14210,6270 14151,6286 14097,6308 14042,6330 13993,6359 13950,6395 13906,6432 13872,6477 13845,6530 13819,6583 13803,6646 13798,6717 L 14185,6717 Z M 14691,7147 C 14691,7165 14690,7187 14687,7214 14684,7241 14678,7269 14668,7299 14657,7328 14641,7356 14619,7382 14596,7408 14566,7429 14527,7446 14488,7462 14438,7470 14378,7471 14336,7471 14297,7466 14261,7456 14225,7446 14196,7427 14175,7401 14153,7375 14142,7338 14141,7291 14142,7245 14152,7207 14174,7180 14195,7152 14223,7131 14257,7116 14292,7102 14329,7091 14370,7085 14410,7078 14451,7072 14492,7066 14532,7061 14570,7054 14605,7045 14640,7036 14668,7022 14691,7003 L 14691,7147 Z M 15866,5862 L 15480,5862 15480,6284 15246,6284 15246,6543 15480,6543 15480,7373 C 15480,7443 15492,7500 15516,7545 15539,7589 15571,7623 15612,7646 15653,7670 15700,7686 15753,7695 15806,7704 15863,7708 15923,7708 15962,7708 16001,7707 16040,7705 16080,7703 16116,7699 16149,7694 L 16149,7392 C 16131,7396 16112,7399 16092,7401 16072,7402 16051,7403 16029,7403 15986,7403 15953,7399 15929,7390 15905,7380 15889,7364 15879,7340 15870,7316 15866,7283 15866,7240 L 15866,6543 16149,6543 16149,6284 15866,6284 15866,5862 Z M 16731,5748 L 16345,5748 16345,6066 16731,6066 16731,5748 Z M 16345,7691 L 16731,7691 16731,6284 16345,6284 16345,7691 Z M 16993,6989 C 16993,7101 17010,7202 17044,7293 17078,7384 17127,7462 17191,7527 17254,7592 17330,7641 17420,7676 17509,7711 17608,7729 17719,7729 17830,7729 17931,7711 18020,7676 18109,7641 18186,7592 18250,7527 18314,7462 18363,7384 18397,7293 18431,7202 18448,7101 18448,6989 18448,6877 18431,6775 18397,6684 18363,6593 18314,6514 18250,6450 18186,6383 18109,6333 18020,6299 17931,6264 17830,6246 17719,6245 17608,6246 17509,6264 17420,6299 17330,6333 17254,6383 17191,6450 17127,6514 17078,6593 17044,6684 17010,6775 16993,6877 16993,6989 Z M 17379,6989 C 17378,6932 17384,6877 17395,6823 17407,6770 17425,6722 17451,6679 17477,6636 17512,6602 17556,6576 17600,6551 17654,6538 17719,6538 17785,6538 17840,6551 17884,6576 17928,6602 17963,6636 17989,6679 18016,6722 18034,6770 18046,6823 18057,6877 18062,6932 18062,6989 18062,7046 18057,7101 18046,7155 18034,7208 18016,7256 17989,7299 17963,7341 17928,7375 17884,7400 17840,7425 17785,7438 17719,7438 17654,7438 17600,7425 17556,7400 17512,7375 17477,7341 17451,7299 17425,7256 17407,7208 17395,7155 17384,7101 17378,7046 17379,6989 Z"/>
   </g>
  </g>
 </g>
</svg>