<?xml version="1.0" encoding="UTF-8" standalone="no"?>
<svg width="132.90118" height="100" viewBox="0 0 132.90118 100" version="1.1" id="svg5" xml:space="preserve"
	xmlns="http://www.w3.org/2000/svg" xmlns:svg="http://www.w3.org/2000/svg">
	<defs id="defs2">
		<style id="style261">
			.cls-1 {
				fill: none;
			}

			.cls-2 {
				clip-path: url(#clippath);
			}

			.cls-3 {
				fill: #e30a28;
			}

			.cls-4 {
				clip-path: url(#clippath-1);
			}

			.cls-5 {
				clip-path: url(#clippath-3);
			}

			.cls-6 {
				clip-path: url(#clippath-2);
			}
		</style>
		<clipPath id="clippath">
			<rect class="cls-1" width="7347.4399" height="1408.2" id="rect263" x="0" y="0" />
		</clipPath>
		<clipPath id="clippath-1">
			<rect class="cls-1" y="0" width="7347.4399" height="1408.2" id="rect266" x="0" />
		</clipPath>
		<clipPath id="clippath-2">
			<rect class="cls-1" y="0" width="7347.4199" height="1408.2" id="rect269" x="0" />
		</clipPath>
		<clipPath id="clippath-3">
			<rect class="cls-1" y="0" width="7347.4399" height="1408.2" id="rect272" x="0" />
		</clipPath>
		<style id="style106">
			.cls-1 {
				fill: none;
			}

			.cls-2 {
				fill: #50bf61;
			}
		</style>
		<style id="style125">
			.cls-1 {
				fill: none;
			}

			.cls-2 {
				fill: #50bf61;
			}
		</style>
	</defs>
	<g id="layer1" transform="translate(-830.35937,-131.46979)">
		<g id="g1283" transform="matrix(0.7817718,0,0,0.7817718,549.42671,-92.367155)">
			<g class="cls-2" clip-path="url(#clippath)" id="g331"
				transform="matrix(0.02976263,0,0,0.02976263,310.67461,385.93602)">
				<g class="cls-4" clip-path="url(#clippath-1)" id="g313">
					<path class="cls-3"
						d="m 1686.86,843.13 c 22.05,33.71 60.35,49.31 97.35,49.31 40.88,0 91.48,-25.95 91.48,-76.6 0,-105.74 -226.47,-40.23 -226.47,-219.33 0,-53.85 45.41,-128.47 155.74,-128.47 49.95,0 97.98,10.38 132.38,52.55 l -50.62,46.07 c -15.57,-24 -46.05,-40.23 -81.76,-40.23 -68.79,0 -89.55,41.53 -89.55,70.07 0,116.16 226.47,46.74 226.47,212.22 0,88.91 -71.36,142.09 -159.64,142.09 -59.04,0 -115.5,-20.1 -146.66,-63.59 l 51.28,-44.11 z"
						id="path277" />
					<path class="cls-3"
						d="m 2152.14,623.78 c 91.52,0 163.52,72.03 163.52,161.6 0,89.57 -72,161.55 -163.52,161.55 -91.52,0 -163.52,-72.04 -163.52,-161.55 0,-89.51 72.02,-161.6 163.52,-161.6 m 0,268.66 c 62.29,0 101.24,-44.78 101.24,-107.05 0,-62.27 -38.95,-107.1 -101.24,-107.1 -62.29,0 -101.23,44.78 -101.23,107.1 0,62.32 38.95,107.05 101.23,107.05"
						id="path279" />
					<path class="cls-3"
						d="m 2597.07,713.35 c -21.4,-22.74 -44.12,-34.4 -76.57,-34.4 -63.59,0 -96.04,51.24 -96.04,109 0,57.76 38.93,104.48 99.29,104.48 32.43,0 55.16,-11.69 74.62,-34.4 l 41.53,41.53 c -30.52,33.77 -72.04,47.36 -116.81,47.36 -94.74,0 -160.93,-65.54 -160.93,-160.29 0,-94.75 64.9,-162.24 160.93,-162.24 44.78,0 87.6,15.6 118.1,48.67 l -44.14,40.27 z"
						id="path281" />
					<path class="cls-3"
						d="m 2750.13,478.42 c 23.36,0 42.83,19.45 42.83,42.83 0,23.38 -19.47,42.84 -42.83,42.84 -23.36,0 -42.83,-19.48 -42.83,-42.84 0,-23.36 19.48,-42.83 42.83,-42.83 m -29.19,153.12 h 58.4 v 307.62 h -58.4 z"
						id="path283" />
					<path class="cls-3"
						d="m 2876.91,669.19 c 32.43,-30.5 79.16,-45.41 121.98,-45.41 90.85,0 128.48,49.29 128.48,102.54 v 157.04 c 0,21.43 0.66,39.59 2.59,55.81 h -51.9 c -1.31,-15.59 -1.95,-31.14 -1.95,-46.72 h -1.29 c -25.95,39.59 -61,54.5 -107.73,54.5 -57.1,0 -106.42,-32.45 -106.42,-92.14 0,-79.19 75.91,-106.43 169.36,-106.43 h 42.83 v -12.97 c 0,-31.83 -23.36,-64.9 -73.33,-64.9 -44.78,0 -66.19,18.79 -87.6,35.04 l -35.04,-36.34 z m 164.81,122.02 c -55.16,0 -122.66,9.71 -122.66,59.07 0,35.02 25.98,49.93 66.21,49.93 64.88,0 87.6,-48 87.6,-89.54 V 791.2 h -31.16 z"
						id="path285" />
					<rect class="cls-3" x="3223.76" y="448.57999" width="58.41" height="490.57001" id="rect287" />
					<path class="cls-3"
						d="m 3671.85,939.15 h -58.4 v -44.14 h -1.33 c -22.69,33.12 -65.52,51.93 -107.07,51.93 -95.38,0 -156.36,-70.74 -156.36,-161.57 0,-90.83 61.64,-161.6 156.36,-161.6 44.14,0 86.33,20.1 107.07,51.93 h 1.33 V 448.58 h 58.4 z m -58.4,-153.78 c 0,-62.31 -38.95,-107.1 -101.24,-107.1 -62.29,0 -101.23,44.79 -101.23,107.1 0,62.31 38.92,107.05 101.23,107.05 62.31,0 101.24,-44.78 101.24,-107.05"
						id="path289" />
					<path class="cls-3"
						d="m 3805.63,806.76 c 0,53.86 49.98,89.55 103.83,89.55 35.69,0 61.67,-18.16 84.35,-46.04 l 44.15,33.71 c -32.45,42.19 -77.24,62.95 -136.29,62.95 -97.31,0 -158.33,-70.1 -158.33,-161.57 0,-91.47 66.85,-161.59 159.02,-161.59 108.36,0 149.88,83.07 149.88,162.23 v 20.76 z m 184.31,-46.69 c -1.29,-51.29 -29.85,-89.57 -88.91,-89.57 -59.06,0 -95.4,48.67 -95.4,89.57 z"
						id="path291" />
					<path class="cls-3"
						d="m 4117.26,631.55 h 54.5 v 48.03 h 1.29 c 5.84,-18.17 43.48,-55.81 98.62,-55.81 45.46,0 76.59,19.48 96.08,57.12 20.1,-37.64 60.31,-57.12 97.3,-57.12 94.76,0 116.81,67.48 116.81,136.31 v 179.09 h -58.4 V 767.84 c 0,-46.72 -9.74,-89.55 -66.19,-89.55 -56.45,0 -78.49,38.28 -78.49,92.81 v 168.07 h -58.45 V 778.24 c 0,-58.43 -8.4,-99.95 -64.9,-99.95 -42.16,0 -79.81,31.81 -79.81,101.23 v 159.66 h -58.38 V 631.56 Z"
						id="path293" />
					<path class="cls-3"
						d="m 4804.15,623.78 c 91.52,0 163.52,72.03 163.52,161.6 0,89.57 -72,161.55 -163.52,161.55 -91.52,0 -163.5,-72.04 -163.5,-161.55 0,-89.51 72.03,-161.6 163.5,-161.6 m 0,268.66 c 62.31,0 101.23,-44.78 101.23,-107.05 0,-62.27 -38.92,-107.1 -101.23,-107.1 -62.31,0 -101.24,44.78 -101.24,107.1 0,62.32 38.96,107.05 101.24,107.05"
						id="path295" />
					<polygon class="cls-3"
						points="5154.73,771.72 5310.45,939.15 5227.4,939.15 5084.64,779.5 5084.64,939.15 5026.24,939.15 5026.24,448.58 5084.64,448.58 5084.64,765.22 5217,632.22 5298.13,632.22 "
						id="polygon297" />
					<path class="cls-3"
						d="m 5365.36,631.55 h 58.4 v 47.41 h 1.31 c 14.91,-32.45 53.86,-55.19 92.14,-55.19 9.07,0 18.16,1.31 25.98,3.9 l -2.62,62.95 c -9.71,-2.59 -19.48,-4.52 -28.57,-4.52 -57.06,0 -88.24,31.12 -88.24,98.61 v 154.47 h -58.4 V 631.56 Z"
						id="path299" />
					<path class="cls-3"
						d="m 5592.93,669.19 c 32.43,-30.5 79.17,-45.41 122,-45.41 90.83,0 128.47,49.29 128.47,102.54 v 157.04 c 0,21.43 0.66,39.59 2.59,55.81 h -51.87 c -1.31,-15.59 -1.95,-31.14 -1.95,-46.72 h -1.29 c -25.97,39.59 -61.03,54.5 -107.77,54.5 -57.07,0 -106.42,-32.45 -106.42,-92.14 0,-79.19 75.92,-106.43 169.38,-106.43 h 42.83 v -12.97 c 0,-31.83 -23.33,-64.9 -73.33,-64.9 -44.78,0 -66.16,18.79 -87.59,35.04 l -35.05,-36.34 z m 164.86,122.02 c -55.19,0 -122.67,9.71 -122.67,59.07 0,35.02 25.97,49.93 66.16,49.93 64.9,0 87.62,-48 87.62,-89.54 V 791.2 h -31.11 z"
						id="path301" />
					<path class="cls-3"
						d="m 6093.75,682.16 h -83.72 V 821.7 c 0,34.4 0,70.74 44.15,70.74 13.6,0 29.83,-1.95 41.55,-9.09 v 53.19 c -13.65,7.81 -40.9,10.4 -52.57,10.4 -90.21,0 -91.52,-55.14 -91.52,-104.48 V 682.17 h -67.45 v -50.62 h 67.45 v -86.28 h 58.38 v 86.28 h 83.72 v 50.62 z"
						id="path303" />
					<path class="cls-3"
						d="m 6201.64,806.76 c 0,53.86 49.98,89.55 103.81,89.55 35.69,0 61.67,-18.16 84.35,-46.04 l 44.17,33.71 c -32.45,42.19 -77.24,62.95 -136.29,62.95 -97.35,0 -158.35,-70.1 -158.35,-161.57 0,-91.47 66.89,-161.59 159.03,-161.59 108.35,0 149.9,83.07 149.9,162.23 v 20.76 z m 184.29,-46.69 c -1.31,-51.29 -29.83,-89.57 -88.9,-89.57 -59.07,0 -95.4,48.67 -95.4,89.57 h 184.29 z"
						id="path305" />
					<path class="cls-3"
						d="m 6516.48,631.55 h 58.38 v 47.41 h 1.33 c 14.88,-32.45 53.85,-55.19 92.12,-55.19 9.09,0 18.17,1.31 25.98,3.9 l -2.6,62.95 c -9.74,-2.59 -19.48,-4.52 -28.57,-4.52 -57.07,0 -88.26,31.12 -88.26,98.61 v 154.47 h -58.38 V 631.56 Z"
						id="path307" />
					<path class="cls-3"
						d="m 6751.51,631.55 h 58.38 v 47.41 h 1.31 c 14.91,-32.45 53.88,-55.19 101.23,-55.19 59.72,0 111.64,35.71 111.64,117.45 v 197.95 h -58.4 V 757.45 c 0,-57.74 -33.12,-79.16 -70.09,-79.16 -48.67,0 -85.69,31.17 -85.69,102.52 v 158.36 h -58.38 z"
						id="path309" />
					<path class="cls-3"
						d="m 7094.38,669.19 c 32.43,-30.5 79.17,-45.41 122,-45.41 90.83,0 128.47,49.29 128.47,102.54 v 157.04 c 0,21.43 0.64,39.59 2.59,55.81 h -51.9 c -1.28,-15.59 -1.93,-31.14 -1.93,-46.72 h -1.33 c -25.92,39.59 -60.98,54.5 -107.72,54.5 -57.09,0 -106.42,-32.45 -106.42,-92.14 0,-79.19 75.91,-106.43 169.38,-106.43 h 42.83 v -12.97 c 0,-31.83 -23.35,-64.9 -73.33,-64.9 -44.79,0 -66.16,18.79 -87.59,35.04 l -35.05,-36.34 z m 164.83,122.02 c -55.17,0 -122.64,9.71 -122.64,59.07 0,35.02 25.95,49.93 66.16,49.93 64.9,0 87.62,-48 87.62,-89.54 V 791.2 h -31.14 z"
						id="path311" />
				</g>
			</g>
			<g id="g1252" style="display:inline" transform="matrix(2.6862052,0,0,2.6862052,-717.0403,-482.7944)">
				<g class="cls-5" clip-path="url(#clippath-3)" id="g319"
					transform="matrix(0.02722037,0,0,0.02722037,413.74131,286.32007)">
					<path class="cls-3"
						d="m 454.06,705.9 c -63.52,-27.23 -67.39,-165.93 -12.79,-148.34 83.17,26.77 102.6,186.96 12.79,148.34 M 356.6,536.52 c -70.63,100.21 122.9,313.57 122.9,313.57 l 72.51,-6.65 C 546.23,684.62 582.3,550.7 550.98,521.49 522.98,495.87 415.55,452.84 356.6,536.52"
						id="path315" />
					<path class="cls-3"
						d="m 566.36,483 c -2.77,-4.88 28.27,-248.6 29.78,-357.06 -155.91,-36.28 -442.64,143.01 -471.4,222.47 66.08,56.43 129.09,103.7 193.87,158.94 47.17,-133.28 217.2,-81.99 247.75,-24.34"
						id="path317" />
				</g>
				<g class="cls-6" clip-path="url(#clippath-2)" id="g329"
					transform="matrix(0.02722037,0,0,0.02722037,413.74131,286.32007)">
					<path class="cls-3"
						d="m 683.74,0 c -17.5,83.82 -18.91,250.5 -36.03,340.05 113.65,-52.32 183.21,-95 299.75,-138.01 C 875.78,105.83 807.05,18.21 683.74,0"
						id="path321" />
					<path class="cls-3"
						d="m 458.4,1109.31 c -72.15,-17.27 -106.09,-51.88 -141.65,-87.87 -9.25,-9.38 30.01,-43.16 44.55,-35.72 50.29,25.72 99.59,55.47 124.44,58.54 322.45,39.7 417.28,-89.5 447.76,-164.04 -154.14,-198.54 -298.95,-142.4 -298.95,-142.4 -6.38,53.68 -21.73,102.22 -21.76,157.97 0.38,5.66 -158.87,24.31 -163.62,17.68 -29.6,-27.54 -64.13,-65.29 -90.81,-94.92 -81.27,70.51 -170.12,109.15 -263.73,165.37 20.66,88.88 120.9,275.34 180.38,310.57 341.97,202.83 693.11,156.5 685.56,-320.49 -93.6,183.62 -402.99,158.89 -502.18,135.31"
						id="path323" />
					<path class="cls-3"
						d="m 1082.03,459.68 c -44.74,12.02 -110.41,-80.42 -74.7,-120.71 47.26,-53.34 173.15,94.35 74.7,120.71 m 106.61,-252.71 c -21.05,-15.82 -414.17,164.6 -544,201.27 -12.11,85.59 -18.17,175.99 -20.02,260.72 111.92,-26.72 225.11,16 338.99,127.55 18.93,-49.47 18.93,-148.38 16.68,-204.61 -0.65,-19.12 42.63,-27.14 46.17,-22.59 50.39,64.08 14.34,230.07 -9.56,313.01 8.04,121.72 9.38,185.77 -14.96,295.11 600.17,-94.41 309.11,-878.58 186.7,-970.46"
						id="path325" />
					<path class="cls-3"
						d="M 330.4,754.17 C 300.19,708.51 285.03,643.09 278.14,585.3 225.49,557.16 144.94,469.91 92.4,504.49 -25.29,581.93 0.32,648.28 7.04,659.1 68.45,758.13 98.12,800.55 151.67,854.64 207.22,830.62 269.19,789.51 330.4,754.17"
						id="path327" />
				</g>
			</g>
		</g>
	</g>
</svg>
