<?xml version="1.0" encoding="UTF-8" standalone="no"?>
<svg width="100.00128" height="99.999969" viewBox="0 0 100.00128 99.999969" version="1.1" id="svg5" xml:space="preserve"
	xmlns="http://www.w3.org/2000/svg" xmlns:svg="http://www.w3.org/2000/svg">
	<defs id="defs2">
		<style id="style261">
			.cls-1 {
				fill: none;
			}

			.cls-2 {
				clip-path: url(#clippath);
			}

			.cls-3 {
				fill: #e30a28;
			}

			.cls-4 {
				clip-path: url(#clippath-1);
			}

			.cls-5 {
				clip-path: url(#clippath-3);
			}

			.cls-6 {
				clip-path: url(#clippath-2);
			}
		</style>
		<clipPath id="a-3">
			<path fill="#ffffff" d="M 0,0 H 73 V 73 H 0 Z" id="path1674" />
		</clipPath>
		<style id="style106">
			.cls-1 {
				fill: none;
			}

			.cls-2 {
				fill: #50bf61;
			}
		</style>
		<style id="style125">
			.cls-1 {
				fill: none;
			}

			.cls-2 {
				fill: #50bf61;
			}
		</style>
	</defs>
	<g id="layer1" transform="translate(-763.28107,-272.99533)">
		<g style="fill:none" id="g1688" transform="matrix(1.3698802,0,0,1.3698802,763.28109,272.99515)">
			<g clip-path="url(#a-3)" id="g1672">
				<path fill-rule="evenodd" clip-rule="evenodd"
					d="m 72.497,40.14 a 0.41,0.41 0 0 0 -0.032,-0.156 c -0.032,-0.079 -0.208,-0.296 -0.35,-0.47 -0.192,-0.24 -0.311,-0.39 -0.329,-0.449 a 0.368,0.368 0 0 1 -0.054,-0.203 c 0,-0.096 0.027,-0.188 0.043,-0.237 0.03,-0.087 0.16,-0.233 0.37,-0.463 0.137,-0.15 0.324,-0.354 0.35,-0.421 a 0.486,0.486 0 0 0 0.027,-0.174 0.796,0.796 0 0 0 -0.053,-0.3 c -0.083,-0.163 -0.247,-0.27 -0.42,-0.383 -0.22,-0.143 -0.457,-0.321 -0.549,-0.533 a 0.498,0.498 0 0 1 -0.061,-0.268 c 0,-0.278 0.552,-0.582 0.913,-0.863 a 2.29,2.29 0 0 0 0.61,-0.695 0.653,0.653 0 0 0 0.037,-0.273 C 72.994,34.208 72.996,34.168 72.988,34.138 72.903,33.83 72.674,33.652 72.472,33.493 l -0.05,-0.04 -0.6,-0.456 -0.144,-0.1 c -0.254,-0.17 -0.543,-0.364 -0.7,-0.747 A 0.996,0.996 0 0 1 70.9,31.768 c 0,-0.342 0.185,-0.625 0.331,-0.846 l 0.16,-0.275 a 0.492,0.492 0 0 0 -0.005,-0.396 0.441,0.441 0 0 0 -0.239,-0.236 1.178,1.178 0 0 0 -0.488,-0.036 8.44,8.44 0 0 1 -1.219,0.07 c -0.85,-0.017 -2.354,-0.21 -3.304,-0.533 l -0.052,-0.018 a 6.07,6.07 0 0 1 -0.995,-0.413 c -0.074,-0.038 -0.277,-0.174 -0.306,-0.18 -0.032,0 -0.323,0.165 -0.323,0.165 l -0.269,0.113 -0.597,0.256 c -0.399,0.181 -0.78,0.303 -1.446,0.515 0,0 -0.965,0.309 -1.14,0.29 l -0.023,-0.01 c -0.055,-0.04 -0.202,-0.593 -0.208,-0.7 -0.002,-0.037 0.033,-0.079 0.092,-0.107 l 0.342,-0.102 c 0.465,-0.125 1.159,-0.316 1.636,-0.504 2.262,-0.894 3.763,-1.736 5.342,-3.502 0.468,-0.521 1.057,-1.432 1.142,-1.612 0.085,-0.18 0.103,-0.285 0.103,-0.285 0.07,-0.295 -0.065,-0.542 -0.14,-0.65 -0.101,-0.15 -0.23,-0.193 -0.382,-0.257 0,0 -0.23,-0.07 -0.341,-0.204 -0.092,-0.111 -0.143,-0.396 -0.18,-0.612 -0.07,-0.388 0.07,-1.678 0.15,-1.988 0.088,-0.335 0.184,-0.811 0.015,-1.062 -0.213,-0.316 -0.823,-0.473 -1.185,-0.507 l -0.18,-0.018 c -0.22,-0.03 -0.703,-0.139 -0.88,-0.25 a 0.889,0.889 0 0 1 -0.339,-0.362 c -0.136,-0.31 -0.02,-0.657 0.138,-1.138 l 0.033,-0.097 c 0.063,-0.192 0.134,-0.41 0.028,-0.632 -0.05,-0.105 -0.263,-0.138 -0.47,-0.17 L 65.314,15.393 C 64.913,15.256 64.433,14.967 64.292,14.568 A 1.307,1.307 0 0 1 64.26,13.715 l 0.058,-0.187 c 0.214,-0.703 0.662,-2.167 0.251,-2.417 -0.097,-0.06 -0.258,-0.16 -0.572,-0.175 L 63.39,10.935 c 0,0 -0.132,0.008 -0.164,0.008 -0.857,0.003 -1.83,0.006 -2.185,-0.514 -0.237,-0.346 -0.3,-0.74 -0.325,-1.264 l 0.016,-0.41 C 60.759,8.401 60.788,8 60.618,7.75 60.482,7.549 59.918,7.576 59.373,7.602 58.853,7.628 58.362,7.654 58.014,7.505 57.274,7.189 57.184,6.531 57.112,6.001 57.07,5.697 57.035,5.433 56.887,5.324 56.757,5.23 56.533,5.302 56.275,5.386 55.862,5.52 55.348,5.686 54.927,5.222 54.643,4.906 54.506,4.404 54.361,3.873 54.176,3.186 53.982,2.476 53.452,2.306 53.149,2.209 52.812,2.371 52.624,2.462 A 8.001,8.001 0 0 0 51.611,3.036 L 51.371,3.212 51.044,3.445 50.93,3.523 C 50.713,3.678 50.385,3.912 49.987,3.753 49.597,3.597 49.499,3.123 49.42,2.741 L 49.368,2.507 a 0.516,0.516 0 0 0 -0.221,-0.32 c -0.204,-0.158 -0.773,0.012 -1.23,0.15 L 47.762,2.382 C 47.537,2.448 47.087,2.512 46.83,2.337 46.61,2.187 46.518,1.963 46.42,1.725 L 46.351,1.561 C 46.044,0.873 45.42,-0.109 44.965,0.01 c -0.161,0.043 -0.5,0.311 -0.723,0.575 l -0.263,0.341 c -0.305,0.409 -0.685,0.917 -0.97,1.04 -0.184,0.08 -0.353,0.116 -0.587,0.032 C 42.266,1.943 42.199,1.805 42.133,1.672 l -0.067,-0.128 -0.204,-0.4 c -0.074,-0.16 -0.137,-0.3 -0.22,-0.363 A 0.512,0.512 0 0 0 41.034,0.763 C 40.911,0.844 40.847,1.049 40.765,1.31 l -0.068,0.214 -0.14,0.634 c -0.158,0.52 -0.322,1.231 -0.535,1.69 -0.52,1.117 -0.864,1.821 -1.707,2.95 -0.262,0.354 -0.931,0.975 -1.022,1.07 l -0.238,0.27 0.004,0.038 0.047,0.537 a 7.439,7.439 0 0 1 -0.034,1.27 c -0.067,0.627 -0.222,1.616 -0.262,1.678 l -0.02,0.028 -0.011,0.01 c -0.03,0.026 -0.055,0.059 -0.405,-0.005 -0.321,-0.058 -0.342,-0.096 -0.361,-0.132 l -0.023,-0.027 0.034,-0.24 c 0.05,-0.29 0.155,-0.897 0.182,-1.49 C 36.259,8.618 36.123,7.473 35.736,5.854 35.391,4.404 34.752,2.917 33.726,1.392 A 4.77,4.77 0 0 0 33.07,0.599 L 32.825,0.426 C 32.719,0.371 32.425,0.319 32.26,0.398 32.063,0.493 31.894,0.788 31.77,1.005 l -0.11,0.184 -0.029,0.045 c 0,0 -0.381,0.536 -0.388,0.543 a 0.78,0.78 0 0 1 -0.46,0.284 C 29.945,2.229 29.46,1.703 28.962,1.301 L 28.607,0.907 28.463,0.792 C 28.226,0.597 27.93,0.354 27.483,0.399 c -0.244,0.024 -0.585,0.585 -0.886,1.08 -0.292,0.481 -0.595,0.98 -0.922,1.249 -0.536,0.44 -1.788,0.256 -2.368,0.086 l -0.17,-0.06 C 22.924,2.677 22.683,2.589 22.455,2.679 22.092,2.821 22.04,3.078 21.953,3.503 l -0.049,0.231 c -0.106,0.472 -0.355,0.779 -0.487,0.88 -0.134,0.102 -0.432,0.177 -0.599,0.175 -0.603,-0.01 -1.014,-0.068 -1.4,-0.27 L 19.148,4.385 18.421,4.062 C 18.127,3.935 17.571,3.763 17.331,3.849 16.559,4.127 16.45,5.129 16.343,6.099 L 16.257,6.788 C 16.207,7.103 16.13,7.323 16.004,7.504 15.584,8.109 14.679,7.777 14.117,7.572 14.015,7.535 13.67,7.424 13.495,7.56 13.351,7.66 13.319,7.929 13.289,8.19 L 13.204,8.652 C 13.152,8.803 12.994,9.1 12.862,9.219 l -0.215,0.116 c -0.235,0.045 -1.194,0.16 -1.78,0.09 L 10.094,9.349 C 9.03,9.276 8.834,9.913 8.783,10.477 c -0.005,0.062 -0.008,0.12 -0.008,0.177 0,0.175 0.024,0.33 0.052,0.513 l 0.127,0.583 c 0.114,0.476 0.224,1.115 0.224,1.648 0,0.363 -0.065,0.704 -0.246,0.975 -0.26,0.39 -0.73,0.45 -1.26,0.518 -0.176,0.023 -0.306,0.043 -0.385,0.096 -0.216,0.148 -0.254,0.523 -0.295,0.92 -0.046,0.465 -0.094,0.945 -0.44,1.19 -0.346,0.244 -0.846,0.297 -1.329,0.35 -0.29,0.03 -0.589,0.062 -0.852,0.134 -0.28,0.077 -0.517,0.236 -0.557,0.311 a 0.78,0.78 0 0 0 -0.045,0.53 l 0.113,0.3 0.026,0.06 0.319,0.635 c 0.132,0.237 0.429,0.554 0.541,0.88 l 0.023,0.062 c 0.054,0.149 0.135,0.369 0.135,0.606 A 0.59,0.59 0 0 1 4.881,21.193 C 4.706,21.72 4.07,22.059 3.518,22.159 2.654,22.317 2.635,22.545 2.622,22.709 L 2.62,22.743 c 0,0.168 0.116,0.236 0.361,0.365 l 0.085,0.045 0.499,0.299 0.365,0.238 0.734,0.497 c 0.931,0.688 1.653,1.44 1.865,1.702 l 0.11,0.133 c 0.233,0.285 0.588,0.716 0.757,1.008 0.356,0.615 0.734,1.135 0.819,1.293 0.026,0.032 0.05,0.048 0.05,0.048 0,0 1.235,0.325 1.769,0.528 0.51,0.194 1.588,0.692 1.674,0.742 l 0.048,0.028 c 0,0 0.022,0.042 0.02,0.054 -0.026,0.135 -0.223,0.67 -0.29,0.704 l -0.038,0.002 -0.142,-0.056 c 0,0 -0.901,-0.46 -1.439,-0.634 C 9.03,29.469 8.35,29.267 7.183,29.166 l -0.308,-0.03 c -1.4,-0.083 -2.476,-0.234 -4.362,0.248 -0.7,0.179 -1.78,0.585 -1.982,1.15 -0.159,0.442 0.16,0.676 0.513,0.855 l 0.205,0.098 c 0.418,0.193 1.05,0.542 1.159,0.982 0.12,0.487 -0.15,0.891 -0.295,1.11 -0.415,0.625 -0.932,1.212 -1.433,1.57 l -0.352,0.256 c -0.104,0.078 -0.312,0.285 -0.325,0.41 -0.038,0.358 0.28,0.543 0.647,0.756 l 0.308,0.187 c 0.135,0.09 0.51,0.52 0.575,0.657 0.36,0.767 -0.054,1.526 -0.19,1.713 L 1.257,39.24 c -0.17,0.213 -0.427,0.533 -0.346,0.86 0.085,0.35 0.369,0.615 0.778,0.73 l 0.21,0.048 0.399,0.125 c 0.19,0.103 0.348,0.294 0.436,0.522 0.086,0.225 0.064,0.547 0.002,0.765 -0.08,0.29 -0.483,0.775 -0.838,1.204 l -0.384,0.485 c -0.22,0.324 -0.93,1.384 -0.743,1.805 0.068,0.154 0.192,0.352 0.546,0.51 0.606,0.271 1.043,0.467 1.417,0.595 L 3,46.97 c 0.43,0.128 1.02,0.303 1.235,0.614 0.453,0.655 0.111,1.162 -0.245,1.586 -0.157,0.188 -0.32,0.426 -0.174,0.612 0.129,0.189 0.384,0.253 0.653,0.322 0.373,0.095 0.796,0.202 0.918,0.677 0.144,0.553 -0.037,0.915 -0.169,1.18 l -0.08,0.171 -0.236,0.446 -0.19,0.475 c -0.048,0.126 -0.077,0.67 0.09,0.918 0.282,0.418 1.021,0.608 2.284,0.623 L 7.5,54.586 c 0.51,-0.014 1.038,-0.03 1.303,0.14 0,0 0.162,0.1 0.21,0.226 0.07,0.188 -0.03,0.601 -0.065,0.735 A 1.564,1.564 0 0 0 8.903,56.2 c 0.02,0.158 0.097,0.206 0.16,0.25 a 0.61,0.61 0 0 0 0.299,0.09 l 0.164,-0.012 c 0.305,-0.027 0.745,-0.1 0.884,-0.046 0.466,0.181 0.192,0.792 0.05,1.133 l -0.18,0.417 c -0.183,0.417 -0.356,0.812 -0.504,1.358 -0.05,0.181 -0.101,0.546 -0.066,0.682 a 0.6,0.6 0 0 0 0.221,0.308 c 0.08,0.063 0.427,0.132 0.672,0.059 l 0.136,-0.05 c 0.259,-0.102 0.69,-0.271 0.997,-0.086 0.417,0.252 0.268,0.821 0.215,1.349 -0.025,0.253 -0.079,0.32 -0.043,0.503 0.013,0.07 0.043,0.244 0.14,0.28 0.471,0.17 1.158,-0.693 1.574,-1.032 1.019,-0.828 2.127,-1.234 2.868,-1.542 0.687,-0.286 1.199,-0.39 1.53,-0.485 l 0.848,-0.156 0.018,-0.003 0.522,-0.673 c 0.447,-0.583 1.305,-1.448 1.66,-1.705 l 0.062,-0.03 0.042,0.004 c 0.13,0.014 0.41,0.445 0.433,0.509 0,0 -0.006,0.06 0.001,0.032 -0.023,0.059 -0.078,0.115 -0.272,0.296 l -0.182,0.188 c -0.256,0.27 -0.695,0.732 -0.958,1.1 -0.542,0.76 -0.873,1.236 -1.188,2.084 -0.137,0.368 -0.253,0.664 -0.474,1.549 -0.256,1.027 -0.287,1.888 -0.317,2.373 -0.023,0.378 -0.006,1.16 0.044,1.788 0.026,0.33 0.18,0.89 0.525,0.993 0.22,0.066 0.552,0.013 0.678,-0.058 0.439,-0.243 1.032,-0.59 1.19,-0.66 0.189,-0.085 0.387,-0.281 0.822,-0.032 0.199,0.114 0.396,0.573 0.416,1.188 0.025,0.73 -0.039,1.742 0.365,2.037 0.202,0.148 0.486,0.23 0.76,0.09 l 0.366,-0.226 c 0.429,-0.286 0.738,-0.5 1.476,-0.365 0.406,0.074 0.645,0.424 0.877,0.818 0.16,0.272 0.324,0.553 0.526,0.674 0.07,0.042 0.224,0.025 0.31,-0.017 0.057,-0.028 0.305,-0.224 0.454,-0.364 l 0.245,-0.272 c 0.207,-0.248 0.427,-0.477 0.752,-0.567 0.47,-0.131 0.707,-0.14 1.088,0.15 0.166,0.127 0.332,0.332 0.474,0.582 0.408,0.717 0.513,1.29 0.93,1.662 l 0.06,0.055 c 0.185,0.171 0.438,0.406 0.8,0.309 0.471,-0.126 0.794,-0.48 1.135,-0.854 a 3.2,3.2 0 0 1 1.562,-0.898 c 0.837,-0.182 1.488,0.99 1.495,1.002 0.181,0.327 0.81,1.034 1.057,1.02 0.368,-0.019 0.704,-0.41 1.06,-0.823 0.292,-0.34 0.596,-0.692 0.949,-0.868 0.602,-0.3 0.977,0 1.467,0.28 0.271,0.154 0.6,0.369 0.738,0.36 a 0.503,0.503 0 0 0 0.368,-0.219 c 0.108,-0.15 0.223,-0.326 0.322,-0.486 0.184,-0.292 0.41,-0.637 0.845,-0.754 0.319,-0.085 0.465,0.032 0.637,0.103 l 0.273,0.149 c 0.315,0.186 1.553,1.117 2.009,1.254 0.307,0.093 0.498,0.058 0.639,-0.076 0.297,-0.284 0.459,-0.95 0.642,-1.409 0.235,-0.588 0.346,-1.049 0.906,-1.258 0.425,-0.16 0.915,0.234 1.06,0.33 0.281,0.182 0.54,0.376 0.762,0.356 0.215,-0.02 0.364,-0.175 0.396,-0.277 a 2.94,2.94 0 0 0 0.093,-0.574 c 0.012,-0.297 0.022,-0.607 0.163,-0.744 0.305,-0.298 0.811,-0.032 1.284,0.203 0.502,0.25 0.992,0.41 1.28,0.33 a 0.517,0.517 0 0 0 0.355,-0.507 c 0.016,-0.658 0.026,-1.525 0.26,-1.671 0.226,-0.14 0.377,-0.013 0.719,0.02 0.281,0.027 0.39,0.005 0.449,-0.05 a 0.49,0.49 0 0 0 0.126,-0.283 0.637,0.637 0 0 0 -0.007,-0.102 c -0.054,-0.25 -0.047,-0.363 -0.286,-0.73 -0.264,-0.408 -0.707,-1.074 -0.89,-1.427 -0.275,-0.532 -0.474,-1.205 -0.623,-1.921 A 10.044,10.044 0 0 1 52.47,60.5 c 0.014,-0.245 0.023,-0.406 0.06,-0.559 0.04,-0.172 0.063,-0.236 0.08,-0.287 -0.008,-0.01 -0.02,-0.021 -0.02,-0.021 -0.428,-0.43 -0.762,-0.822 -0.939,-1.012 a 19.46,19.46 0 0 1 -0.718,-0.902 c -0.087,-0.122 -0.216,-0.3 -0.244,-0.362 l -0.002,-0.025 c -0.02,-0.022 0.057,-0.117 0.247,-0.29 0.198,-0.178 0.331,-0.258 0.359,-0.231 l 0.022,0.009 c 0.032,0.036 0.173,0.217 0.309,0.413 0.042,0.062 0.125,0.156 0.348,0.443 0.208,0.268 0.494,0.59 0.844,0.929 a 11.756,11.756 0 0 0 3.395,2.277 c 1.108,0.49 2.006,0.742 2.9,0.949 0.587,0.136 1.058,0.146 1.246,0.098 0.25,-0.064 0.26,-0.368 0.247,-0.863 -0.011,-0.45 -0.023,-0.917 0.306,-1.147 0.289,-0.202 1.15,-0.424 1.634,-0.35 0.228,0.035 0.79,0.084 0.875,0.043 0.124,-0.07 0.17,-0.19 0.17,-0.35 0,-0.159 -0.046,-0.36 -0.105,-0.591 -0.052,-0.2 -0.099,-0.384 -0.099,-0.531 a 0.38,0.38 0 0 1 0.048,-0.203 c 0.107,-0.293 0.418,-0.359 0.693,-0.417 l 0.12,-0.026 0.29,-0.061 c 0.444,-0.089 0.737,-0.253 0.932,-0.53 0.079,-0.113 0.106,-0.286 0.106,-0.484 0,-0.221 -0.034,-0.474 -0.065,-0.71 -0.031,-0.234 -0.062,-0.464 -0.062,-0.662 0,-0.266 0.04,-0.493 0.22,-0.593 0.534,-0.296 1.127,-0.385 1.65,-0.464 0.621,-0.093 1.158,-0.174 1.43,-0.56 0.087,-0.125 0.134,-0.334 0.134,-0.547 0,-0.135 -0.019,-0.272 -0.058,-0.39 L 68.561,51.896 68.4,51.559 c -0.145,-0.334 -0.3,-0.641 -0.405,-1.005 l -0.022,-0.075 c -0.057,-0.19 -0.126,-0.424 -0.126,-0.647 0,-0.142 -0.017,-0.28 0.06,-0.4 0.311,-0.481 0.904,-0.523 1.337,-0.553 0.257,-0.018 0.5,-0.035 0.542,-0.135 a 0.776,0.776 0 0 0 0.047,-0.298 c 0,-0.32 -0.103,-0.75 -0.191,-1.115 L 69.63,47.282 A 1.281,1.281 0 0 1 69.6,46.993 c 0,-0.277 0.028,-0.639 0.122,-0.772 0.24,-0.34 0.885,-0.677 1.312,-0.901 l 0.131,-0.069 0.179,-0.09 c 0.269,-0.13 0.501,-0.242 0.577,-0.505 0.014,-0.048 0.02,-0.099 0.02,-0.153 0,-0.373 -0.307,-0.868 -0.52,-1.21 l -0.209,-0.35 c -0.074,-0.118 -0.18,-0.284 -0.18,-0.489 0,-0.05 0.007,-0.104 0.023,-0.159 0.113,-0.42 0.342,-0.722 0.592,-1.013 L 71.88,41 72.131,40.722 c 0.193,-0.198 0.366,-0.376 0.366,-0.583 z"
					fill="#ed1c24" id="path1668" />
				<path
					d="M 31.117,54.714 H 42.072 L 54.217,21.954 H 43.96 L 36.69,45.532 29.33,21.956 H 18.765 l 12.351,32.76 z"
					fill="#ffffff" id="path1670" />
			</g>
		</g>
	</g>
</svg>
