<?xml version="1.0" encoding="UTF-8" standalone="no"?>
<svg width="100" height="100" viewBox="0 0 100 100" version="1.1" id="svg5" xml:space="preserve"
	xmlns="http://www.w3.org/2000/svg" xmlns:svg="http://www.w3.org/2000/svg">
	<defs id="defs2">
		<style id="style261">
			.cls-1 {
				fill: none;
			}

			.cls-2 {
				clip-path: url(#clippath);
			}

			.cls-3 {
				fill: #e30a28;
			}

			.cls-4 {
				clip-path: url(#clippath-1);
			}

			.cls-5 {
				clip-path: url(#clippath-3);
			}

			.cls-6 {
				clip-path: url(#clippath-2);
			}
		</style>
		<clipPath id="clippath">
			<rect class="cls-1" width="7347.4399" height="1408.2" id="rect263" x="0" y="0" />
		</clipPath>
		<style id="style106">
			.cls-1 {
				fill: none;
			}

			.cls-2 {
				fill: #50bf61;
			}
		</style>
		<style id="style125">
			.cls-1 {
				fill: none;
			}

			.cls-2 {
				fill: #50bf61;
			}
		</style>
	</defs>
	<g id="layer1" transform="translate(-853.19879,-406.7316)">
		<g id="layer1-5" transform="matrix(1.0752688,0,0,1.0752688,853.19879,406.73161)">
			<g id="g1142">
				<circle style="fill:#50bf61;fill-opacity:1;stroke-width:0.764595" id="path1130" cx="46.5" cy="46.5"
					r="46.5" />
				<g id="g1136" transform="translate(-891.22193,-492.14591)">
					<path class="cls-2"
						d="m 965.25074,518.57092 q -5.76,-4.29 -11.38,-4.28 c -3.41,0 -5.59,0.67 -6.51,2 q -2.1,3 -6.36,23.79 c -2.8,13.87 -3.64,16.04 -2.8,17.6 a 23.63,23.63 0 0 0 4.67,5.32 h 2.81 c 1.09,-1.32 1.87,1 2.81,-4.09 0.83,-4.52 1.71,-6.79 2.71,-6.79 a 9.54,9.54 0 0 1 2.36,0.42 9.11,9.11 0 0 0 2.12,0.43 q 4.39,0 11.74,-2.72 c 2.92,-1.07 5.24,-4.07 6.91,-9 1.67,-4.93 1.59,-9.14 -0.25,-12.61 a 30.16,30.16 0 0 0 -8.83,-10.07 z m 0.89,13.26 a 14.59,14.59 0 0 1 -1,5.21 10.81,10.81 0 0 1 -3.15,3.71 c -1.65,1.49 -3.08,2.23 -4.31,2.23 h -5.26 l -1.44,-2.73 q -1.78,-3.33 -0.43,-9 a 19.38,19.38 0 0 1 3.18,-7.56 q 0.92,-1.24 4.83,-1.24 c 3.25,0 5.48,1.11 6.67,3.35 a 11.86,11.86 0 0 1 0.91,6.03 z"
						id="path112" style="fill:#ffffff;fill-opacity:1" clip-path="url(#clippath)" />
					<path class="cls-2"
						d="m 928.50897,516.01091 h -2.93 q 2,11.06 -5.53,27.24 a 28.64,28.64 0 0 1 -7.33,-9 c 0.31,0.59 -0.21,-0.39 -1.59,-3 q 0,0 -1.5,-2.82 a 18.24,18.24 0 0 0 -8.81,-8.29 l -0.9,2.05 6,11.18 c 1,1.89 4,6.2 9.09,13 a 84.83,84.83 0 0 1 5.22,10.28 10.05,10.05 0 0 0 3.13,2.76 13.6,13.6 0 0 0 3.91,1.87 l 4.89,-18 q 4.32,-17.61 1.86,-22.23 c -0.91,-1.65 -2.74,-3.32 -5.51,-5.04 z"
						id="path131" style="fill:#ffffff;fill-opacity:1" clip-path="url(#clippath)" />
				</g>
			</g>
		</g>
	</g>
</svg>
