<?xml version="1.0" encoding="UTF-8" standalone="no"?>
<svg width="76.190491" height="100" viewBox="0 0 76.190491 100" version="1.1" id="svg5" xml:space="preserve"
	xmlns:xlink="http://www.w3.org/1999/xlink" xmlns="http://www.w3.org/2000/svg"
	xmlns:svg="http://www.w3.org/2000/svg">
	<defs id="defs2">
		<style id="style261">
			.cls-1 {
				fill: none;
			}

			.cls-2 {
				clip-path: url(#clippath);
			}

			.cls-3 {
				fill: #e30a28;
			}

			.cls-4 {
				clip-path: url(#clippath-1);
			}

			.cls-5 {
				clip-path: url(#clippath-3);
			}

			.cls-6 {
				clip-path: url(#clippath-2);
			}
		</style>
		<path id="a" fill-rule="evenodd" d="M 0,147 H 112 V 0 H 0 Z" />
		<path id="b" fill-rule="evenodd"
			d="m 9.2,13.108 2.388,-7.55 2.316,7.55 z M 22.103,18.556 16.396,0 H 9.476 L 3.53,18.448 c -0.555,1.677 -0.832,2.32 -2.702,2.32 H 0 V 23.9 l 10.168,0.002 v -3.135 h -1.14 c -1.35,0 -1.87,-0.11 -1.87,-0.856 0,-0.176 0.038,-0.533 0.176,-0.958 l 0.863,-2.746 h 6.676 l 0.9,2.957 c 0.068,0.286 0.172,0.532 0.172,0.748 0,0.712 -0.59,0.857 -2.11,0.857 h -0.97 V 23.9 l 12.8,0.002 V 20.767 H 24.49 c -1.453,0 -1.87,-0.575 -2.387,-2.21 z" />
		<path id="c" fill-rule="evenodd"
			d="M 11.726,20.767 H 9.892 v -7.802 h 1.8 c 3.422,0 4.98,1.143 4.98,3.952 0,2.743 -1.594,3.85 -4.946,3.85 z M 9.892,3.137 h 1.694 c 2.976,0 4.29,0.923 4.29,3.312 0,2.456 -1.385,3.488 -4.43,3.488 H 9.893 v -6.8 z m 7.64,8.12 c 3.152,-1.036 4.813,-3.03 4.813,-5.63 C 22.345,1.637 19.437,0 13.557,0 H 0 v 3.137 h 1.28 c 1.902,0 2.11,0.318 2.11,2.065 v 13.5 c 0,1.743 -0.208,2.065 -2.11,2.065 H 0 V 23.9 l 13.175,0.002 c 7.023,0 10.345,-1.608 10.345,-6.553 0,-3.242 -1.973,-5.204 -5.988,-6.092 z" />
		<path id="d" fill-rule="evenodd"
			d="m 0,3.137 h 1.28 c 1.902,0 2.11,0.318 2.11,2.065 v 13.5 c 0,1.743 -0.208,2.065 -2.11,2.065 H 0 V 23.9 l 13.488,0.002 v -3.135 h -1.454 c -1.902,0 -2.142,-0.322 -2.142,-2.066 v -5.627 c 0.173,0 0.345,-0.034 0.518,-0.034 2.04,0 2.595,1.1 2.63,4.02 h 2.905 V 6.163 H 13.04 v 0.18 c 0,2.67 -0.695,3.596 -2.908,3.596 h -0.24 v -6.8 h 1.834 c 2.49,0 4.184,0 5.29,1.1 1.07,1.034 1.487,2.814 1.694,5.52 h 3.046 V 0 H 0 Z" />
		<path id="e" fill-rule="evenodd"
			d="m 49.155,64.084 c -25.28,0 -45.77,-13.59 -45.77,-30.36 0,-16.762 20.49,-30.354 45.77,-30.354 25.278,0 45.774,13.592 45.774,30.353 0,16.77 -20.497,30.36 -45.775,30.36 z M 49.155,0 C 22.01,0 0,15.098 0,33.723 0,52.353 22.01,67.455 49.155,67.455 76.299,67.455 98.309,52.353 98.309,33.723 98.31,15.098 76.3,0 49.154,0 Z" />
		<style id="style106">
			.cls-1 {
				fill: none;
			}

			.cls-2 {
				fill: #50bf61;
			}
		</style>
		<style id="style125">
			.cls-1 {
				fill: none;
			}

			.cls-2 {
				fill: #50bf61;
			}
		</style>
	</defs>
	<g id="layer1" transform="translate(-590.23352,-269.15781)">
		<g id="g1644" transform="matrix(0.68027211,0,0,0.68027211,590.23355,269.1578)">
			<use href="#a" xlink:href="#a" fill="#d80811" id="use1613" />
			<use href="#b" xlink:href="#b" transform="translate(16.4,92)" fill="#ffffff" id="use1615" />
			<use href="#c" xlink:href="#c" transform="translate(44.3,92)" fill="#ffffff" id="use1617" />
			<use href="#d" xlink:href="#d" transform="translate(71,92)" fill="#ffffff" id="use1619" />
			<use href="#e" xlink:href="#e" transform="translate(6.7,71.63)" fill="#ffffff" id="use1621" />
		</g>
	</g>
</svg>
